<?xml version="1.0" encoding="UTF-8" standalone="no"?>
<!-- Created with Inkscape (http://www.inkscape.org/) -->

<svg
   xmlns:dc="http://purl.org/dc/elements/1.1/"
   xmlns:cc="http://creativecommons.org/ns#"
   xmlns:rdf="http://www.w3.org/1999/02/22-rdf-syntax-ns#"
   xmlns:svg="http://www.w3.org/2000/svg"
   xmlns="http://www.w3.org/2000/svg"
   xmlns:sodipodi="http://sodipodi.sourceforge.net/DTD/sodipodi-0.dtd"
   xmlns:inkscape="http://www.inkscape.org/namespaces/inkscape"
   width="445.41147mm"
   height="496.28842mm"
   viewBox="0 0 445.41147 496.28842"
   version="1.1"
   id="svg8"
   inkscape:version="0.92.4 (5da689c313, 2019-01-14)"
   sodipodi:docname="logo-phoenix-1mm.svg">
  <defs
     id="defs2" />
  <sodipodi:namedview
     id="base"
     pagecolor="#ffffff"
     bordercolor="#666666"
     borderopacity="1.0"
     inkscape:pageopacity="0.0"
     inkscape:pageshadow="2"
     inkscape:zoom="0.35"
     inkscape:cx="1222.366"
     inkscape:cy="1047.6963"
     inkscape:document-units="mm"
     inkscape:current-layer="layer1"
     showgrid="false"
     fit-margin-top="0"
     fit-margin-left="0"
     fit-margin-right="0"
     fit-margin-bottom="0"
     inkscape:window-width="1920"
     inkscape:window-height="1029"
     inkscape:window-x="0"
     inkscape:window-y="26"
     inkscape:window-maximized="1" />
  <metadata
     id="metadata5">
    <rdf:RDF>
      <cc:Work
         rdf:about="">
        <dc:format>image/svg+xml</dc:format>
        <dc:type
           rdf:resource="http://purl.org/dc/dcmitype/StillImage" />
        <dc:title />
      </cc:Work>
    </rdf:RDF>
  </metadata>
  <g
     inkscape:label="Layer 1"
     inkscape:groupmode="layer"
     id="layer1"
     transform="translate(73.795495,35.565734)">
    <g
       id="g4886">
      <path
         sodipodi:nodetypes="ccc"
         inkscape:connector-curvature="0"
         id="path155"
         d="m 193.74,159.42475 c 14.43254,-15.50164 6.41448,-42.76315 0.80182,-50.78121 -5.61266,-8.01809 -1.64209,-10.593279 -1.64209,-10.593279"
         style="fill:none;stroke:#000000;stroke-width:1;stroke-linecap:butt;stroke-linejoin:miter;stroke-miterlimit:4;stroke-dasharray:none;stroke-opacity:1" />
      <path
         sodipodi:nodetypes="cc"
         inkscape:connector-curvature="0"
         id="path157"
         d="m 186.79098,79.778424 c -2.25163,19.088228 6.82678,21.343566 26.21747,19.769596"
         style="fill:none;stroke:#000000;stroke-width:1;stroke-linecap:round;stroke-linejoin:round;stroke-miterlimit:4;stroke-dasharray:none;stroke-opacity:1" />
      <path
         sodipodi:nodetypes="ccccccccsssc"
         inkscape:connector-curvature="0"
         id="path159"
         d="m 232.40459,106.27045 c -22.0212,0.084 -22.26243,-13.53509 -22.26243,-13.53509 0,0 27.48893,5.321004 24.37947,25.13542 2.73463,-0.69659 13.01405,-20.874867 -8.12649,-35.340769 -3.12478,-6.201628 -1.06769,-12.004928 -1.77639,-13.186099 C 220.74451,63.579779 203.3386,47.756194 190.95988,48.228661 178.58117,48.701154 158.26634,17.85162 186.51867,-7.0503454 152.36488,14.79884 173.80065,50.875371 179.05363,56.733136 c 0.46762,7.288037 -1.8592,7.653554 -3.40177,17.859375 -0.96661,6.39521 3.74127,34.231819 -0.37798,39.498509 -0.67308,0.86056 -5.19718,6.28386 -9.35492,1.08668 -4.15773,-5.19716 -1.03683,-24.553303 -1.03683,-24.553303"
         style="fill:none;stroke:#000000;stroke-width:1;stroke-linecap:butt;stroke-linejoin:round;stroke-miterlimit:4;stroke-dasharray:none;stroke-opacity:1" />
      <path
         sodipodi:nodetypes="cc"
         inkscape:connector-curvature="0"
         id="path4669"
         d="m 159.58785,92.073902 c 0.18899,9.071428 -6.41084,20.221738 -10.66307,24.757458"
         style="fill:none;stroke:#000000;stroke-width:1;stroke-linecap:round;stroke-linejoin:miter;stroke-miterlimit:4;stroke-dasharray:none;stroke-opacity:1" />
      <path
         sodipodi:nodetypes="cc"
         inkscape:connector-curvature="0"
         id="path4671"
         d="m 158.712,98.812228 c 7.2288,-1.842645 16.53638,-35.463601 1.98431,-48.45654"
         style="fill:none;stroke:#000000;stroke-width:1;stroke-linecap:butt;stroke-linejoin:miter;stroke-miterlimit:4;stroke-dasharray:none;stroke-opacity:1" />
      <path
         sodipodi:nodetypes="ccc"
         inkscape:connector-curvature="0"
         id="path4675"
         d="m 155.39468,73.151473 c 10.39434,-11.055799 6.36653,-25.159032 0.5079,-30.875937 -6.70905,-6.142101 -6.99254,-40.1599581 -6.99254,-40.1599581"
         style="fill:none;stroke:#000000;stroke-width:1;stroke-linecap:round;stroke-linejoin:miter;stroke-miterlimit:4;stroke-dasharray:none;stroke-opacity:1" />
      <path
         inkscape:connector-curvature="0"
         id="path4677"
         d="m 214.77236,81.490569 c 0.189,-8.031983 -12.37871,-10.772325 -12.85118,-3.023791"
         style="fill:none;stroke:#000000;stroke-width:1;stroke-linecap:round;stroke-linejoin:miter;stroke-miterlimit:4;stroke-dasharray:none;stroke-opacity:1" />
      <path
         sodipodi:nodetypes="cc"
         inkscape:connector-curvature="0"
         id="path4679"
         d="M 209.10274,74.120045 C 203.90556,69.584319 188.7747,61.351537 178.9473,60.973553"
         style="fill:none;stroke:#000000;stroke-width:1;stroke-linecap:butt;stroke-linejoin:miter;stroke-miterlimit:4;stroke-dasharray:none;stroke-opacity:1" />
      <circle
         r="1.6831751"
         cx="156.74121"
         cy="74.18502"
         id="path4708"
         style="opacity:1;fill:none;stroke:#000000;stroke-width:1;stroke-miterlimit:4;stroke-dasharray:none;stroke-opacity:1" />
      <path
         sodipodi:nodetypes="ccscsc"
         inkscape:connector-curvature="0"
         id="path4712"
         d="m 201.08991,128.1542 c 0,0 30.28818,-1.27406 37.95229,30.46873 90.48253,-11.03116 86.00848,-146.888308 29.26601,-179.070579 -35.81414,-20.312483 -27.2615,11.2253206 -27.2615,11.2253206 0,0 -18.5667,-22.0795776 12.82893,-25.6578756 56.77554,-6.470959 159.93498,158.929784 -8.63646,236.190274"
         style="fill:none;stroke:#000000;stroke-width:1;stroke-linecap:round;stroke-linejoin:round;stroke-miterlimit:4;stroke-dasharray:none;stroke-opacity:1" />
      <path
         sodipodi:nodetypes="ccsc"
         inkscape:connector-curvature="0"
         id="path4714"
         d="m 337.33115,85.459319 c 2.64582,-8.882444 5.81138,-13.087426 17.67039,-17.103415 -5.66966,11.528282 -4.50163,18.841792 -1.41741,31.844486 10.89544,45.93389 -35.1518,129.26785 -108.47917,128.88989"
         style="fill:none;stroke:#000000;stroke-width:1;stroke-linecap:round;stroke-linejoin:round;stroke-miterlimit:4;stroke-dasharray:none;stroke-opacity:1" />
      <path
         sodipodi:nodetypes="cccc"
         inkscape:connector-curvature="0"
         id="path4716"
         d="m 341.86687,164.26737 c 24.94643,-27.2143 32.06551,0.7102 28.30097,8.78794 -3.26176,-10.61689 -12.33149,-14.1741 -13.18194,-6.14211 -5.57513,49.23139 -59.15326,84.47768 -112.25892,81.83184"
         style="fill:none;stroke:#000000;stroke-width:1;stroke-linecap:round;stroke-linejoin:round;stroke-miterlimit:4;stroke-dasharray:none;stroke-opacity:1" />
      <path
         sodipodi:nodetypes="ccsc"
         inkscape:connector-curvature="0"
         id="path4718"
         d="m 339.05568,208.39608 c 21.16667,-21.16665 24.84803,7.4448 20.76505,14.83556 0.66258,-7.21823 -7.9284,-19.27387 -12.4732,-5.10267 -19.45669,60.66809 -89.01341,54.0506 -125.29912,48.56993"
         style="fill:none;stroke:#000000;stroke-width:1;stroke-linecap:round;stroke-linejoin:round;stroke-miterlimit:4;stroke-dasharray:none;stroke-opacity:1" />
      <path
         sodipodi:nodetypes="ccsc"
         inkscape:connector-curvature="0"
         id="path4720"
         d="m 320.34317,255.25415 c 16.63097,-3.40177 36.59608,4.20708 21.33471,28.83166 1.17353,-2.73109 -0.0254,-18.39608 -9.44941,-10.39434 -37.66486,31.98047 -84.66666,20.59969 -118.30656,11.15031"
         style="fill:none;stroke:#000000;stroke-width:1;stroke-linecap:round;stroke-linejoin:round;stroke-miterlimit:4;stroke-dasharray:none;stroke-opacity:1" />
      <path
         sodipodi:nodetypes="ccsc"
         inkscape:connector-curvature="0"
         id="path4722"
         d="m 299.41542,291.1965 c 42.9003,1.03941 26.99846,54.16891 0.87406,48.6408 10.80932,-2.2229 19.05446,-31.4418 -14.93007,-26.45833 -26.01032,3.81413 -49.32587,4.15774 -90.90326,-16.63094"
         style="fill:none;stroke:#000000;stroke-width:1;stroke-linecap:round;stroke-linejoin:round;stroke-miterlimit:4;stroke-dasharray:none;stroke-opacity:1" />
      <path
         sodipodi:nodetypes="ccsc"
         inkscape:connector-curvature="0"
         id="path4724"
         d="m 258.59846,315.39003 c 65.57886,35.34077 -3.27835,117.74522 -11.41464,65.83567 17.66497,24.38903 35.42302,-18.70776 12.28424,-34.01788 -36.62569,-24.23394 -73.51636,-23.8125 -84.85566,-42.71129"
         style="fill:none;stroke:#000000;stroke-width:1;stroke-linecap:round;stroke-linejoin:round;stroke-miterlimit:4;stroke-dasharray:none;stroke-opacity:1" />
      <path
         sodipodi:nodetypes="cccsc"
         inkscape:connector-curvature="0"
         id="path4726"
         d="m 180.2904,311.01925 c 0.37796,16.44195 10.38599,13.13204 20.59134,31.84187 10.20537,18.70982 9.67534,43.00952 28.34822,59.9092 -27.19029,6.92227 -48.00298,-23.8125 -54.42857,-56.50743 -6.42559,-32.69493 -8.11814,-29.38502 -12.08689,-34.67669"
         style="fill:none;stroke:#000000;stroke-width:1;stroke-linecap:round;stroke-linejoin:round;stroke-miterlimit:4;stroke-dasharray:none;stroke-opacity:1" />
      <path
         sodipodi:nodetypes="ccc"
         inkscape:connector-curvature="0"
         id="path4728"
         d="m 202.60626,397.24242 c -3.59077,10.58333 -2.48046,30.09637 -2.48046,30.09637 0,0 -32.88394,-18.70983 -44.60118,-108.66816"
         style="fill:none;stroke:#000000;stroke-width:1;stroke-linecap:round;stroke-linejoin:round;stroke-miterlimit:4;stroke-dasharray:none;stroke-opacity:1" />
      <path
         sodipodi:nodetypes="cscc"
         inkscape:connector-curvature="0"
         id="path4730"
         d="m 159.87132,345.69594 c -2.07886,11.1503 -3.75091,18.34952 -0.18899,42.71129 6.14057,41.99846 -3.59077,71.81548 -3.59077,71.81548 0,0 -17.76487,-10.96129 -6.2366,-139.09524"
         style="fill:none;stroke:#000000;stroke-width:1;stroke-linecap:round;stroke-linejoin:round;stroke-miterlimit:4;stroke-dasharray:none;stroke-opacity:1" />
      <path
         d="m 209.57519,80.758247 a 2.0788691,1.2520461 0 0 1 -2.07866,1.252046 2.0788691,1.2520461 0 0 1 -2.07908,-1.2518 2.0788691,1.2520461 0 0 1 2.07826,-1.252292 2.0788691,1.2520461 0 0 1 2.07948,1.251555"
         sodipodi:open="true"
         sodipodi:end="6.2827925"
         sodipodi:start="0"
         sodipodi:ry="1.2520461"
         sodipodi:rx="2.0788691"
         sodipodi:cy="80.758247"
         sodipodi:cx="207.49632"
         sodipodi:type="arc"
         id="path4753"
         style="opacity:1;fill:none;stroke:#000000;stroke-width:1;stroke-miterlimit:4;stroke-dasharray:none;stroke-opacity:1" />
      <path
         sodipodi:nodetypes="ccc"
         inkscape:connector-curvature="0"
         id="path155-3"
         d="m 104.07982,159.42475 c -14.432561,-15.50164 -6.414501,-42.76315 -0.80183,-50.78121 5.6127,-8.01809 1.6421,-10.593277 1.6421,-10.593277"
         style="fill:none;stroke:#000000;stroke-width:1;stroke-linecap:butt;stroke-linejoin:miter;stroke-miterlimit:4;stroke-dasharray:none;stroke-opacity:1" />
      <path
         sodipodi:nodetypes="cc"
         inkscape:connector-curvature="0"
         id="path157-6"
         d="m 111.02888,79.778427 c 2.25164,19.088229 -6.82682,21.343563 -26.217531,19.769593"
         style="fill:none;stroke:#000000;stroke-width:1;stroke-linecap:round;stroke-linejoin:round;stroke-miterlimit:4;stroke-dasharray:none;stroke-opacity:1" />
      <path
         sodipodi:nodetypes="ccccccccsssc"
         inkscape:connector-curvature="0"
         id="path159-7"
         d="m 65.415209,106.27045 c 22.0212,0.084 22.26243,-13.535083 22.26243,-13.535083 0,0 -27.48893,5.321 -24.37947,25.135413 -2.73463,-0.69659 -13.01405,-20.874863 8.12649,-35.340763 3.12478,-6.20163 1.06769,-12.00493 1.77639,-13.1861 3.87424,-5.76414 21.28015,-21.58772 33.658901,-21.11525 12.37879,0.47249 32.69373,-30.37705 4.44124,-55.2790091 34.15399,21.8491891 12.71809,57.9257191 7.46508,63.7834791 -0.46762,7.28804 1.85921,7.65356 3.40179,17.85938 0.96662,6.39521 -3.74129,34.231813 0.37798,39.498503 0.67309,0.86056 5.19721,6.28386 9.35498,1.08668 4.15775,-5.19716 1.03683,-24.553303 1.03683,-24.553303"
         style="fill:none;stroke:#000000;stroke-width:1;stroke-linecap:butt;stroke-linejoin:round;stroke-miterlimit:4;stroke-dasharray:none;stroke-opacity:1" />
      <path
         sodipodi:nodetypes="cc"
         inkscape:connector-curvature="0"
         id="path4669-5"
         d="m 138.23216,92.073907 c -0.18899,9.071423 6.44036,20.221733 10.69262,24.757453"
         style="fill:none;stroke:#000000;stroke-width:1;stroke-linecap:round;stroke-linejoin:miter;stroke-miterlimit:4;stroke-dasharray:none;stroke-opacity:1" />
      <path
         sodipodi:nodetypes="cc"
         inkscape:connector-curvature="0"
         id="path4671-3"
         d="m 139.10802,98.812226 c -7.22884,-1.842639 -16.40284,-35.69746 -1.85068,-48.6904"
         style="fill:none;stroke:#000000;stroke-width:1;stroke-linecap:butt;stroke-linejoin:miter;stroke-miterlimit:4;stroke-dasharray:none;stroke-opacity:1" />
      <path
         sodipodi:nodetypes="ccc"
         inkscape:connector-curvature="0"
         id="path4675-5"
         d="m 142.42536,73.151477 c -10.3944,-11.0558 -6.36657,-25.15903 -0.5079,-30.87594 6.70909,-6.1421 6.99258,-40.1599591 6.99258,-40.1599591"
         style="fill:none;stroke:#000000;stroke-width:1;stroke-linecap:round;stroke-linejoin:miter;stroke-miterlimit:4;stroke-dasharray:none;stroke-opacity:1" />
      <path
         inkscape:connector-curvature="0"
         id="path4677-6"
         d="m 83.047439,81.490567 c -0.189,-8.03198 12.37871,-10.77232 12.85118,-3.02379"
         style="fill:none;stroke:#000000;stroke-width:1;stroke-linecap:round;stroke-linejoin:miter;stroke-miterlimit:4;stroke-dasharray:none;stroke-opacity:1" />
      <path
         sodipodi:nodetypes="cc"
         inkscape:connector-curvature="0"
         id="path4679-2"
         d="m 88.717059,74.120047 c 5.19718,-4.53573 20.328091,-12.76851 30.155541,-13.14649"
         style="fill:none;stroke:#000000;stroke-width:1;stroke-linecap:butt;stroke-linejoin:miter;stroke-miterlimit:4;stroke-dasharray:none;stroke-opacity:1" />
      <circle
         transform="scale(-1,1)"
         r="1.6831751"
         cx="-141.07838"
         cy="74.185013"
         id="path4708-9"
         style="opacity:1;fill:none;stroke:#000000;stroke-width:1;stroke-miterlimit:4;stroke-dasharray:none;stroke-opacity:1" />
      <path
         sodipodi:nodetypes="ccscsc"
         inkscape:connector-curvature="0"
         id="path4712-1"
         d="m 96.729889,128.1542 c 0,0 -30.28818,-1.27406 -37.95229,30.46873 -90.482076,-11.03116 -86.008053,-146.888303 -29.265916,-179.070573 35.814046,-20.31249 27.261406,11.2253209 27.261406,11.2253209 0,0 18.5667,-22.0795809 -12.828917,-25.6578809 -56.775207,-6.47096 -159.934152,158.929783 8.636447,236.190273"
         style="fill:none;stroke:#000000;stroke-width:1;stroke-linecap:round;stroke-linejoin:round;stroke-miterlimit:4;stroke-dasharray:none;stroke-opacity:1" />
      <path
         sodipodi:nodetypes="ccsc"
         inkscape:connector-curvature="0"
         id="path4714-2"
         d="m -39.510852,85.459317 c -2.645805,-8.88244 -5.81135,-13.08742 -17.670291,-17.10341 5.669627,11.52828 4.501603,18.84179 1.417401,31.844483 -10.895377,45.93389 35.151602,129.26784 108.478581,128.88988"
         style="fill:none;stroke:#000000;stroke-width:1;stroke-linecap:round;stroke-linejoin:round;stroke-miterlimit:4;stroke-dasharray:none;stroke-opacity:1" />
      <path
         sodipodi:nodetypes="cccc"
         inkscape:connector-curvature="0"
         id="path4716-7"
         d="m -44.046548,164.26737 c -24.946289,-27.2143 -32.065327,0.7102 -28.300808,8.78794 3.261739,-10.61689 12.331418,-14.1741 13.181865,-6.14211 5.575097,49.23139 59.15291824,84.47767 112.25831,81.83183"
         style="fill:none;stroke:#000000;stroke-width:1;stroke-linecap:round;stroke-linejoin:round;stroke-miterlimit:4;stroke-dasharray:none;stroke-opacity:1" />
      <path
         sodipodi:nodetypes="ccsc"
         inkscape:connector-curvature="0"
         id="path4718-0"
         d="m -41.235373,208.39608 c -21.16655,-21.16665 -24.847889,7.4448 -20.764933,14.83556 -0.662577,-7.21823 7.928355,-19.27387 12.473128,-5.10267 19.456582,60.6681 89.012894,54.05061 125.298567,48.56992"
         style="fill:none;stroke:#000000;stroke-width:1;stroke-linecap:round;stroke-linejoin:round;stroke-miterlimit:4;stroke-dasharray:none;stroke-opacity:1" />
      <path
         sodipodi:nodetypes="ccsc"
         inkscape:connector-curvature="0"
         id="path4720-9"
         d="m -22.522971,255.25415 c -16.630874,-3.40177 -36.59587,4.20709 -21.334587,28.83165 -1.173524,-2.73108 0.0254,-18.39608 9.449356,-10.39434 37.6646393,31.98048 84.666191,20.59969 118.306091,11.15031"
         style="fill:none;stroke:#000000;stroke-width:1;stroke-linecap:round;stroke-linejoin:round;stroke-miterlimit:4;stroke-dasharray:none;stroke-opacity:1" />
      <path
         sodipodi:nodetypes="ccsc"
         inkscape:connector-curvature="0"
         id="path4722-3"
         d="m -1.5953428,291.1965 c -42.9000522,1.03942 -26.9983022,54.16892 -0.8740534,48.64079 -10.8092558,-2.2229 -19.0543478,-31.44179 14.9299752,-26.45833 26.010173,3.81412 49.32568,4.15774 90.903091,-16.63094"
         style="fill:none;stroke:#000000;stroke-width:1;stroke-linecap:round;stroke-linejoin:round;stroke-miterlimit:4;stroke-dasharray:none;stroke-opacity:1" />
      <path
         sodipodi:nodetypes="ccsc"
         inkscape:connector-curvature="0"
         id="path4724-6"
         d="m 39.221379,315.39003 c -65.578476,35.34076 3.278332,117.74522 11.4146,65.83566 -17.664894,24.38903 -35.422845,-18.70776 -12.284197,-34.01788 36.625647,-24.23392 73.516378,-23.8125 84.855748,-42.71129"
         style="fill:none;stroke:#000000;stroke-width:1;stroke-linecap:round;stroke-linejoin:round;stroke-miterlimit:4;stroke-dasharray:none;stroke-opacity:1" />
      <path
         sodipodi:nodetypes="cccsc"
         inkscape:connector-curvature="0"
         id="path4726-0"
         d="m 117.52949,311.01924 c -0.37796,16.44195 -10.38604,13.13204 -20.591431,31.84187 -10.20537,18.70982 -9.67534,43.00953 -28.34822,59.9092 27.19029,6.92227 48.003071,-23.8125 54.428701,-56.50743 6.42562,-32.69493 8.11818,-29.38502 12.08696,-34.67669"
         style="fill:none;stroke:#000000;stroke-width:1;stroke-linecap:round;stroke-linejoin:round;stroke-miterlimit:4;stroke-dasharray:none;stroke-opacity:1" />
      <path
         sodipodi:nodetypes="ccc"
         inkscape:connector-curvature="0"
         id="path4728-6"
         d="m 95.213539,397.24243 c 3.59077,10.58333 2.48046,30.09635 2.48046,30.09635 0,0 32.884111,-18.70982 44.601421,-108.66816"
         style="fill:none;stroke:#000000;stroke-width:1;stroke-linecap:round;stroke-linejoin:round;stroke-miterlimit:4;stroke-dasharray:none;stroke-opacity:1" />
      <path
         sodipodi:nodetypes="cscc"
         inkscape:connector-curvature="0"
         id="path4730-2"
         d="m 137.94869,345.69593 c 2.07888,11.15031 3.75094,18.34952 0.18899,42.71129 -6.1406,41.99848 3.5908,71.81549 3.5908,71.81549 0,0 5.34029,-7.36342 6.83313,-21.96396"
         style="fill:none;stroke:#000000;stroke-width:1;stroke-linecap:round;stroke-linejoin:round;stroke-miterlimit:4;stroke-dasharray:none;stroke-opacity:1" />
      <path
         transform="scale(-1,1)"
         d="m -88.244625,80.75824 a 2.0788691,1.2520461 0 0 1 -2.078665,1.252046 2.0788691,1.2520461 0 0 1 -2.079073,-1.2518 2.0788691,1.2520461 0 0 1 2.078257,-1.252292 2.0788691,1.2520461 0 0 1 2.079481,1.251554"
         sodipodi:open="true"
         sodipodi:end="6.2827925"
         sodipodi:start="0"
         sodipodi:ry="1.2520461"
         sodipodi:rx="2.0788691"
         sodipodi:cy="80.75824"
         sodipodi:cx="-90.323494"
         sodipodi:type="arc"
         id="path4753-6"
         style="opacity:1;fill:none;stroke:#000000;stroke-width:1;stroke-miterlimit:4;stroke-dasharray:none;stroke-opacity:1" />
      <path
         sodipodi:nodetypes="ccc"
         inkscape:connector-curvature="0"
         id="path4827"
         d="m 181.27855,405.24587 c -3.60812,9.62171 -3.44109,35.21279 -3.44109,35.21279 0,0 -10.52374,-8.85331 -16.1364,-24.62221"
         style="fill:none;stroke:#000000;stroke-width:1;stroke-linecap:round;stroke-linejoin:round;stroke-miterlimit:4;stroke-dasharray:none;stroke-opacity:1" />
      <path
         sodipodi:nodetypes="ccc"
         inkscape:connector-curvature="0"
         id="path4827-1"
         d="m 116.47328,405.40388 c 3.60812,9.62171 3.44109,35.21279 3.44109,35.21279 0,0 10.52374,-8.85331 16.1364,-24.62221"
         style="fill:none;stroke:#000000;stroke-width:1;stroke-linecap:round;stroke-linejoin:round;stroke-miterlimit:4;stroke-dasharray:none;stroke-opacity:1" />
    </g>
    <flowRoot
       xml:space="preserve"
       id="flowRoot4915"
       style="fill:black;fill-opacity:1;stroke:none;font-family:sans-serif;font-style:normal;font-weight:normal;font-size:40px;line-height:1.25;letter-spacing:0px;word-spacing:0px"><flowRegion
         id="flowRegion4917"><rect
           id="rect4919"
           width="88.893425"
           height="70.710678"
           x="595.98999"
           y="966.59845" /></flowRegion><flowPara
         id="flowPara4921" /></flowRoot>  </g>
</svg>
