<?xml version="1.0" encoding="UTF-8" standalone="no"?>
<!-- Created with Inkscape (http://www.inkscape.org/) -->

<svg
   xmlns:dc="http://purl.org/dc/elements/1.1/"
   xmlns:cc="http://creativecommons.org/ns#"
   xmlns:rdf="http://www.w3.org/1999/02/22-rdf-syntax-ns#"
   xmlns:svg="http://www.w3.org/2000/svg"
   xmlns="http://www.w3.org/2000/svg"
   xmlns:sodipodi="http://sodipodi.sourceforge.net/DTD/sodipodi-0.dtd"
   xmlns:inkscape="http://www.inkscape.org/namespaces/inkscape"
   width="39.999828mm"
   height="44.564415mm"
   viewBox="0 0 39.999828 44.564415"
   version="1.1"
   id="svg8"
   inkscape:version="0.92.4 (5da689c313, 2019-01-14)"
   sodipodi:docname="logo-phoenix-health-2mm-paths-union-40mm.svg">
  <defs
     id="defs2" />
  <sodipodi:namedview
     id="base"
     pagecolor="#ffffff"
     bordercolor="#666666"
     borderopacity="1.0"
     inkscape:pageopacity="0.0"
     inkscape:pageshadow="2"
     inkscape:zoom="63.356768"
     inkscape:cx="75.764545"
     inkscape:cy="137.65139"
     inkscape:document-units="mm"
     inkscape:current-layer="g256"
     showgrid="false"
     fit-margin-top="0"
     fit-margin-left="0"
     fit-margin-right="0"
     fit-margin-bottom="0"
     inkscape:window-width="1920"
     inkscape:window-height="1029"
     inkscape:window-x="0"
     inkscape:window-y="26"
     inkscape:window-maximized="1" />
  <metadata
     id="metadata5">
    <rdf:RDF>
      <cc:Work
         rdf:about="">
        <dc:format>image/svg+xml</dc:format>
        <dc:type
           rdf:resource="http://purl.org/dc/dcmitype/StillImage" />
        <dc:title></dc:title>
      </cc:Work>
    </rdf:RDF>
  </metadata>
  <g
     inkscape:label="Layer 1"
     inkscape:groupmode="layer"
     id="layer1"
     transform="translate(74.300904,-416.65838)">
    <g
       id="g4886"
       style="stroke-width:2;stroke-miterlimit:4;stroke-dasharray:none" />
    <flowRoot
       xml:space="preserve"
       id="flowRoot4915"
       style="font-style:normal;font-weight:normal;font-size:40px;line-height:1.25;font-family:sans-serif;letter-spacing:0px;word-spacing:0px;fill:#000000;fill-opacity:1;stroke:none;stroke-width:2;stroke-miterlimit:4;stroke-dasharray:none"><flowRegion
         id="flowRegion4917"
         style="stroke-width:2;stroke-miterlimit:4;stroke-dasharray:none"><rect
           id="rect4919"
           width="88.893425"
           height="70.710678"
           x="595.98999"
           y="966.59845"
           style="stroke-width:2;stroke-miterlimit:4;stroke-dasharray:none" /></flowRegion><flowPara
         id="flowPara4921" /></flowRoot>    <g
       aria-label="HEALTH"
       transform="matrix(0.30496756,0,0,0.41913868,-113.64755,-212.47362)"
       style="font-style:normal;font-weight:normal;font-size:40px;line-height:1.25;font-family:sans-serif;letter-spacing:0px;word-spacing:0px;fill:#000000;fill-opacity:1;stroke:none"
       id="flowRoot4907-3">
      <g
         id="g256">
        <path
           style="color:#000000;font-style:normal;font-variant:normal;font-weight:normal;font-stretch:normal;font-size:medium;line-height:normal;font-family:sans-serif;font-variant-ligatures:normal;font-variant-position:normal;font-variant-caps:normal;font-variant-numeric:normal;font-variant-alternates:normal;font-feature-settings:normal;text-indent:0;text-align:start;text-decoration:none;text-decoration-line:none;text-decoration-style:solid;text-decoration-color:#000000;letter-spacing:normal;word-spacing:normal;text-transform:none;writing-mode:lr-tb;direction:ltr;text-orientation:mixed;dominant-baseline:auto;baseline-shift:baseline;text-anchor:start;white-space:normal;shape-padding:0;clip-rule:nonzero;display:inline;overflow:visible;visibility:visible;opacity:1;isolation:auto;mix-blend-mode:normal;color-interpolation:sRGB;color-interpolation-filters:linearRGB;solid-color:#000000;solid-opacity:1;vector-effect:none;fill:none;fill-opacity:1;fill-rule:nonzero;stroke:#000000;stroke-width:0.09867236;stroke-linecap:butt;stroke-linejoin:miter;stroke-miterlimit:4;stroke-dasharray:none;stroke-dashoffset:0;stroke-opacity:1;color-rendering:auto;image-rendering:auto;shape-rendering:auto;text-rendering:auto;enable-background:accumulate"
           d="m 162.76773,1501.0293 c -0.20762,2e-4 -0.41665,0.01 -0.62705,0.015 -3.92743,0.1892 -8.30394,2.0924 -12.19866,5.0738 -4.45111,3.4074 -8.27808,8.2429 -10.02676,13.6486 -0.62503,1.9322 -0.98195,3.9379 -1.00708,5.9762 -0.2735,-0.4156 -0.60307,-0.7791 -1.03805,-1.1028 -0.81111,-0.6036 -1.96299,-1.0563 -3.72709,-1.4909 a 0.29383554,0.21379632 0 0 0 -0.0861,-0.011 0.29383554,0.21379632 0 0 0 -0.27147,0.3081 c 1.637,2.4219 1.29859,3.8898 0.3943,6.6637 -1.17673,3.6097 -0.14144,8.2311 2.67279,12.6708 -1.30088,-0.8674 -2.42945,-1.3467 -3.4166,-1.5356 -0.324,-0.062 -0.63282,-0.091 -0.92494,-0.091 v -10e-5 c -0.87636,4e-4 -1.60236,0.2607 -2.13532,0.6626 -0.71061,0.5359 -1.10904,1.2997 -1.27111,2.0434 -0.16206,0.7437 -0.0967,1.4662 0.22213,1.9641 a 0.29383554,0.21379632 0 0 0 0.54749,-0.028 c 0.45942,-1.0881 1.34042,-1.797 2.0383,-2.0183 0.34894,-0.1107 0.6222,-0.1046 0.82337,-0.014 0.20117,0.09 0.3814,0.2909 0.43787,0.679 a 0.29383554,0.21379632 0 0 0 6.1e-4,0 c 0.4278,2.7487 1.80053,5.2931 3.87223,7.5461 -0.75854,-0.3541 -1.43395,-0.527 -2.04224,-0.5513 -1.07391,-0.043 -1.87491,0.4157 -2.35851,1.041 -0.48359,0.6254 -0.70297,1.4235 -0.73394,2.1749 -0.031,0.7513 0.11641,1.4501 0.46414,1.9081 a 0.29383554,0.21379632 0 0 0 0.54977,-0.1228 c -0.0854,-0.677 0.48926,-1.682 1.15178,-2.0747 0.33125,-0.1963 0.61153,-0.2496 0.92099,-0.1319 0.30945,0.1177 0.69778,0.4701 1.01968,1.2004 1.49587,3.3938 4.0013,5.8209 7.07156,7.53 -0.23558,-0.017 -0.47137,-0.028 -0.70645,-0.034 -1.91182,-0.049 -3.77185,0.2661 -4.99364,1.0504 -0.81454,0.523 -1.32378,1.2668 -1.31924,2.2034 0.005,0.9366 0.5039,2.0603 1.64354,3.3982 a 0.29383554,0.21379632 0 0 0 0.51925,-0.1971 c -0.0388,-0.066 -0.10383,-0.3874 -0.0774,-0.7381 0.0264,-0.3507 0.12289,-0.7524 0.30017,-1.0681 0.17728,-0.3157 0.42015,-0.5242 0.7104,-0.5816 0.29025,-0.057 0.72966,0.01 1.38347,0.4129 2.63683,1.6291 5.43133,2.7376 8.29014,3.454 -2.38294,0.2395 -4.0626,0.933 -5.12376,1.8745 -1.27594,1.132 -1.64551,2.6003 -1.35993,4.0075 0.28558,1.4072 1.22024,2.7631 2.59551,3.7026 1.37527,0.9396 3.21474,1.459 5.23277,1.1483 a 0.29383554,0.21379632 0 0 0 -0.002,-0.4188 c -0.67678,-0.1013 -1.37736,-0.5348 -1.86491,-1.1336 -0.48755,-0.5987 -0.75783,-1.3505 -0.64451,-2.0372 0.11331,-0.6867 0.58362,-1.308 1.632,-1.7201 1.04839,-0.4122 2.70522,-0.6063 5.16232,-0.3441 2.27786,0.243 4.49435,0.4182 6.80542,0.4294 -4.23792,1.8638 -6.38804,4.2657 -7.1279,6.6894 -0.79382,2.6005 0.0206,5.2123 1.52406,7.2325 1.50343,2.0201 3.68292,3.4712 5.77176,3.6972 1.04442,0.113 2.07244,-0.1063 2.87654,-0.7173 0.80411,-0.611 1.39402,-1.5916 1.69866,-3.0058 a 0.29383554,0.21379632 0 0 0 -0.52791,-0.1586 c -1.25968,1.2654 -2.43269,1.5996 -3.40749,1.4404 -0.97479,-0.1591 -1.85183,-0.858 -2.38097,-1.8463 -1.05828,-1.9765 -0.68508,-4.9911 2.57941,-6.5627 5.34191,-2.5718 10.70968,-3.8378 15.18559,-4.969 3.02701,-0.7651 5.66181,-1.466 7.58885,-2.4914 -0.15617,1.371 -0.81511,1.9317 -1.81663,2.6112 -1.10652,0.7507 -2.64279,1.6093 -4.16481,3.6396 -1.52583,2.0354 -2.23694,4.3469 -3.25262,6.584 -1.01568,2.2371 -2.32583,4.3954 -5.01596,6.1669 a 0.29383554,0.21379632 0 0 0 0.1251,0.3658 c 2.83537,0.5252 5.45382,0.059 7.72747,-1.0579 0.42307,1.0717 0.58734,2.5259 0.63343,3.7401 0.05,1.3162 -0.031,2.3503 -0.031,2.3503 a 0.29383554,0.21379632 0 0 0 0.43894,0.1979 c 0,0 0.64449,-0.2691 1.62229,-0.9574 0.95805,-0.6744 2.25551,-1.7608 3.6577,-3.4193 0.38285,1.0328 0.59762,2.6413 0.70175,4.0485 0.11971,1.6175 0.10734,2.9795 0.10734,2.9795 a 0.29383554,0.21379632 0 0 0 0.48312,0.1654 c 0,0 2.55915,-1.567 4.29189,-4.3841 0.17295,5.1832 1.64856,8.4779 1.64856,8.4779 a 0.29383554,0.21379632 0 0 0 0.51697,0.059 c 0,0 1.18028,-1.1935 1.8016,-3.5147 0.37849,1.3184 0.7965,2.158 1.1542,2.6888 0.22708,0.3371 0.43024,0.5509 0.58424,0.684 0.15399,0.133 0.28802,0.1983 0.28802,0.1983 a 0.29383554,0.21379632 0 0 0 0.43392,-0.1157 c 0,0 1.47589,-3.2954 1.64856,-8.4797 1.73236,2.7968 4.27169,4.3521 4.27169,4.3521 a 0.29383554,0.21379632 0 0 0 0.48312,-0.1654 c 0,0 -0.0124,-1.362 0.10734,-2.9795 0.10389,-1.4038 0.31806,-3.0078 0.69917,-4.0409 1.41087,1.6737 2.71727,2.7675 3.68048,3.4455 0.97779,0.6883 1.62214,0.9574 1.62214,0.9574 a 0.29383554,0.21379632 0 0 0 0.43908,-0.1979 c 0,0 -0.0809,-1.0341 -0.031,-2.3503 0.0461,-1.2143 0.2098,-2.6685 0.63282,-3.7402 2.27386,1.117 4.89248,1.5832 7.72792,1.058 a 0.29383554,0.21379632 0 0 0 0.1245,-0.3658 c -2.69013,-1.7715 -3.99967,-3.9298 -5.01535,-6.1669 -1.01569,-2.2371 -1.72665,-4.5486 -3.25247,-6.584 -1.52202,-2.0303 -3.05905,-2.8889 -4.16557,-3.6396 -1.00152,-0.6795 -1.65979,-1.2402 -1.81587,-2.6112 1.92704,1.0254 4.56171,1.7263 7.58869,2.4914 4.47591,1.1312 9.84368,2.3972 15.18559,4.969 3.26451,1.5716 3.6377,4.5862 2.57942,6.5627 -0.52914,0.9883 -1.40663,1.6872 -2.38143,1.8463 -0.9748,0.1592 -2.1472,-0.175 -3.40688,-1.4404 a 0.29383554,0.21379632 0 0 0 -0.52852,0.1586 c 0.30464,1.4142 0.895,2.3948 1.69912,3.0058 0.8041,0.611 1.83227,0.8303 2.87669,0.7173 2.08885,-0.226 4.26816,-1.6771 5.77161,-3.6972 1.50345,-2.0202 2.31803,-4.632 1.52421,-7.2325 -0.73987,-2.4237 -2.89051,-4.8256 -7.1285,-6.6894 2.31126,-0.011 4.52797,-0.1864 6.80601,-0.4294 2.45713,-0.2622 4.11378,-0.068 5.16217,0.3441 1.04839,0.4121 1.51869,1.0334 1.63201,1.7201 0.11331,0.6867 -0.15681,1.4385 -0.64436,2.0372 -0.48755,0.5988 -1.18813,1.0323 -1.86491,1.1336 a 0.29383554,0.21379632 0 0 0 -0.002,0.4188 c 2.01803,0.3107 3.85703,-0.2087 5.23231,-1.1483 1.37528,-0.9395 2.31039,-2.2954 2.59596,-3.7026 0.28558,-1.4072 -0.084,-2.8755 -1.35992,-4.0075 -1.06122,-0.9415 -2.74097,-1.635 -5.12407,-1.8745 2.85891,-0.7164 5.65351,-1.8249 8.29045,-3.454 0.65381,-0.4039 1.09336,-0.4703 1.38361,-0.4129 0.29025,0.057 0.53313,0.2659 0.71041,0.5816 0.17729,0.3157 0.27377,0.7174 0.30016,1.0681 0.0264,0.3507 -0.0388,0.6724 -0.0776,0.7381 a 0.29383554,0.21379632 0 0 0 0.51941,0.1971 c 1.13965,-1.3379 1.63885,-2.4616 1.64339,-3.3982 0.005,-0.9366 -0.50471,-1.6804 -1.31924,-2.2034 -1.22181,-0.7843 -3.08167,-1.0994 -4.99349,-1.0504 -0.23504,0.01 -0.47092,0.018 -0.70646,0.034 3.07026,-1.7091 5.57555,-4.1362 7.07142,-7.53 0.3219,-0.7303 0.71037,-1.0827 1.01983,-1.2004 0.30946,-0.1177 0.59034,-0.064 0.9216,0.1319 0.66251,0.3927 1.23642,1.3977 1.15101,2.0747 a 0.29383554,0.21379632 0 0 0 0.54977,0.1228 c 0.34774,-0.458 0.49526,-1.1568 0.4643,-1.9081 -0.031,-0.7514 -0.2499,-1.5495 -0.73349,-2.1749 -0.4836,-0.6253 -1.28505,-1.0838 -2.35896,-1.041 -0.60812,0.024 -1.28335,0.1971 -2.04163,0.551 2.07164,-2.253 3.44428,-4.7973 3.87207,-7.5459 0.0565,-0.388 0.23671,-0.5886 0.43788,-0.6789 0.20117,-0.09 0.47458,-0.096 0.82352,0.014 0.69788,0.2214 1.57933,0.9303 2.03875,2.0184 a 0.29383554,0.21379632 0 0 0 0.54689,0.028 c 0.31886,-0.4979 0.38419,-1.2204 0.22212,-1.9641 -0.16206,-0.7437 -0.56049,-1.5075 -1.27111,-2.0434 -0.53296,-0.4019 -1.25881,-0.6622 -2.13517,-0.6626 -0.29211,-10e-5 -0.60108,0.029 -0.92508,0.091 -0.98716,0.1889 -2.11572,0.6681 -3.4166,1.5355 2.81419,-4.4396 3.84967,-9.061 2.67294,-12.6706 -0.90429,-2.7739 -1.24286,-4.2418 0.39415,-6.6637 a 0.29383554,0.21379632 0 0 0 -0.25538,-0.3081 0.29383554,0.21379632 0 0 0 -0.10203,0.011 c -1.7641,0.4346 -2.91597,0.8873 -3.72708,1.4909 -0.43491,0.3236 -0.76459,0.6871 -1.03805,1.1026 -0.0252,-2.0383 -0.38208,-4.0439 -1.00708,-5.976 -1.7487,-5.4057 -5.57563,-10.2412 -10.02676,-13.6486 -3.89474,-2.9814 -8.27121,-4.8846 -12.19866,-5.0738 -0.56107,-0.027 -1.11325,-0.019 -1.65327,0.026 -2.34307,0.1943 -3.79618,0.64 -4.65035,1.238 -0.85417,0.598 -1.06456,1.3448 -0.95151,2.0291 0.22609,1.3687 1.64127,2.5678 1.64127,2.5678 a 0.29383554,0.21379632 0 0 0 0.50832,-0.1936 c 0,0 -0.15046,-0.4037 -0.21925,-0.9491 -0.0688,-0.5453 -0.0451,-1.2233 0.26403,-1.7374 0.30911,-0.514 0.84516,-0.8807 1.99761,-0.9005 1.15246,-0.02 2.93212,0.3535 5.53871,1.4291 8.18421,3.3774 12.67667,12.2848 11.77339,20.6335 -0.45164,4.1744 -2.24505,8.201 -5.55647,11.3221 -3.26956,3.0817 -8.01779,5.2811 -14.46486,5.8976 -1.19015,-3.32 -3.99062,-4.9719 -6.50964,-5.7561 -2.00843,-0.6252 -3.82864,-0.7176 -4.53527,-0.7286 -0.3902,-1.7694 -1.23692,-3.293 -1.99442,-4.0804 -0.79738,-0.8288 -0.87863,-1.3362 -0.81076,-1.6154 0.0324,-0.1333 0.098,-0.2189 0.15471,-0.2741 1.36859,0.426 3.27767,0.4288 5.72135,0.2888 0.89757,0.7287 2.59354,1.3977 5.63284,1.4191 0.47018,0.6184 0.71061,1.3456 0.51697,2.2433 a 0.29383554,0.21379632 0 0 0 0.36273,0.2405 c 0.2435,-0.045 0.37735,-0.1617 0.54278,-0.3169 0.16544,-0.1552 0.33392,-0.3603 0.49132,-0.6096 0.31479,-0.4986 0.58251,-1.173 0.62371,-1.9461 0.0816,-1.5316 -0.76707,-3.447 -3.87117,-5.0203 -0.40929,-0.6094 -0.48952,-1.1987 -0.47978,-1.6781 0.005,-0.2444 0.0313,-0.4586 0.0448,-0.6375 0.0135,-0.179 0.0575,-0.3139 -0.0814,-0.4823 a 0.29383554,0.21379632 0 0 0 -0.008,-0.01 c -0.61334,-0.664 -2.17881,-1.8104 -4.07948,-2.8108 -1.90066,-1.0003 -4.11631,-1.8516 -6.06494,-1.7974 -0.78441,0.022 -1.78277,-0.333 -2.68615,-0.9925 -0.90339,-0.6596 -1.7089,-1.6118 -2.14959,-2.7273 -0.88138,-2.2311 -0.34265,-5.1076 3.73635,-7.7235 a 0.29383554,0.21379632 0 0 0 -0.18933,-0.3737 h -1.5e-4 a 0.29383554,0.21379632 0 0 0 -0.16292,0.033 c -0.0134,0.01 -0.0228,0.013 -0.0361,0.02 -5.0677,2.3732 -6.05802,5.5706 -5.53521,8.2896 0.26209,1.3631 0.89153,2.61 1.55275,3.5979 0.62952,0.9405 1.26578,1.617 1.68879,1.9757 0.0537,0.7112 -0.0629,1.0784 -0.26388,1.5437 -0.20718,0.4795 -0.50126,1.0687 -0.73106,2.1749 -0.081,0.3898 -0.0414,1.0131 0.0298,1.7841 0.0711,0.7711 0.17965,1.6776 0.25887,2.574 0.0792,0.8964 0.12893,1.7832 0.0849,2.506 -0.0441,0.7229 -0.21727,1.2859 -0.42573,1.4798 -0.0866,0.081 -0.45463,0.3934 -0.88379,0.5399 -0.21458,0.073 -0.43354,0.1064 -0.65757,0.073 -0.22402,-0.033 -0.47296,-0.1336 -0.74654,-0.3824 -0.23862,-0.2171 -0.4175,-0.6537 -0.50043,-1.1795 -0.0829,-0.5259 -0.0836,-1.1382 -0.0458,-1.7178 0.0756,-1.1591 0.30229,-2.1841 0.30229,-2.1841 l -0.007,-8e-4 c 0.39316,-0.7284 0.71031,-1.6063 0.88668,-2.539 0.41869,-2.2144 0.0563,-4.7547 -2.14974,-6.2253 -0.33119,-0.7198 -0.85404,-1.3323 -1.45285,-1.7575 h -0.003 -0.003 c -0.39392,-0.2624 -0.78576,-0.9369 -1.06554,-1.7874 -0.27977,-0.8505 -0.47433,-1.8752 -0.60716,-2.8605 -0.26566,-1.9706 -0.28635,-3.7811 -0.28635,-3.7811 a 0.29383554,0.21379632 0 0 0 -4.5e-4,-0.01 0.29383554,0.21379632 0 0 0 -9.1e-4,-0.014 0.29383554,0.21379632 0 0 0 -0.001,-0.01 0.29383554,0.21379632 0 0 0 -0.003,-0.015 0.29383554,0.21379632 0 0 0 -0.003,-0.01 0.29383554,0.21379632 0 0 0 -0.004,-0.013 0.29383554,0.21379632 0 0 0 -0.004,-0.01 0.29383554,0.21379632 0 0 0 -0.005,-0.01 0.29383554,0.21379632 0 0 0 -0.007,-0.012 0.29383554,0.21379632 0 0 0 -0.005,-0.01 0.29383554,0.21379632 0 0 0 -0.008,-0.01 0.29383554,0.21379632 0 0 0 -0.008,-0.01 0.29383554,0.21379632 0 0 0 -0.005,-0.01 0.29383554,0.21379632 0 0 0 -0.0132,-0.013 0.29383554,0.21379632 0 0 0 -0.004,0 0.29383554,0.21379632 0 0 0 -0.0141,-0.011 0.29383554,0.21379632 0 0 0 -0.012,-0.01 0.29383554,0.21379632 0 0 0 -0.01,-0.01 0.29383554,0.21379632 0 0 0 -0.0141,-0.01 0.29383554,0.21379632 0 0 0 -0.009,0 0.29383554,0.21379632 0 0 0 -0.0134,-0.01 0.29383554,0.21379632 0 0 0 -0.0126,-0.01 0.29383554,0.21379632 0 0 0 -0.0108,0 0.29383554,0.21379632 0 0 0 -0.0159,-0.01 0.29383554,0.21379632 0 0 0 -0.0153,0 0.29383554,0.21379632 0 0 0 -0.0111,0 0.29383554,0.21379632 0 0 0 -0.0185,0 0.29383554,0.21379632 0 0 0 -0.0103,0 0.29383554,0.21379632 0 0 0 -0.0202,0 0.29383554,0.21379632 0 0 0 -0.009,-7e-4 0.29383554,0.21379632 0 0 0 -0.0194,-7e-4 0.29383554,0.21379632 0 0 0 -0.008,-2e-4 0.29383554,0.21379632 0 0 0 -0.002,10e-5 0.29383554,0.21379632 0 0 0 -0.003,-10e-5 0.29383554,0.21379632 0 0 0 -0.0129,6e-4 0.29383554,0.21379632 0 0 0 -0.014,8e-4 0.29383554,0.21379632 0 0 0 -0.0147,0 0.29383554,0.21379632 0 0 0 -0.0137,0 0.29383554,0.21379632 0 0 0 -0.0172,0 0.29383554,0.21379632 0 0 0 -0.0108,0 0.29383554,0.21379632 0 0 0 -0.0196,0.01 0.29383554,0.21379632 0 0 0 -0.007,0 0.29383554,0.21379632 0 0 0 -0.0196,0.01 0.29383554,0.21379632 0 0 0 -0.007,0 0.29383554,0.21379632 0 0 0 -0.0188,0.01 0.29383554,0.21379632 0 0 0 -0.006,0 0.29383554,0.21379632 0 0 0 -0.0138,0.01 0.29383554,0.21379632 0 0 0 -0.0105,0.01 0.29383554,0.21379632 0 0 0 -0.0143,0.01 0.29383554,0.21379632 0 0 0 -0.006,0 0.29383554,0.21379632 0 0 0 -0.0155,0.013 0.29383554,0.21379632 0 0 0 -0.004,0 0.29383554,0.21379632 0 0 0 -0.0121,0.013 0.29383554,0.21379632 0 0 0 -0.005,0.01 0.29383554,0.21379632 0 0 0 -0.009,0.012 0.29383554,0.21379632 0 0 0 -0.005,0.01 0.29383554,0.21379632 0 0 0 -0.007,0.012 0.29383554,0.21379632 0 0 0 -0.004,0.01 0.29383554,0.21379632 0 0 0 -0.006,0.014 0.29383554,0.21379632 0 0 0 -0.003,0.01 0.29383554,0.21379632 0 0 0 -0.005,0.016 0.29383554,0.21379632 0 0 0 -0.001,0 0.29383554,0.21379632 0 0 0 -0.003,0.019 0.29383554,0.21379632 0 0 0 -3.1e-4,0 0.29383554,0.21379632 0 0 0 -6e-4,0.014 c 0,0 -0.0213,1.8105 -0.28696,3.7811 -0.13283,0.9853 -0.32739,2.01 -0.60716,2.8605 -0.27978,0.8505 -0.67116,1.525 -1.06508,1.7874 h -0.003 -0.003 c -0.58958,0.4186 -1.10591,1.0186 -1.43782,1.724 -2.18451,1.4736 -2.55236,4.0147 -2.14518,6.2329 0.17291,0.942 0.48807,1.8288 0.88015,2.5634 h -0.02 c 0,0 0.22684,1.025 0.30245,2.1841 0.0378,0.5796 0.0371,1.1919 -0.0459,1.7178 -0.0829,0.5258 -0.2618,0.9624 -0.50042,1.1795 -0.27359,0.2488 -0.52312,0.349 -0.74715,0.3824 -0.22402,0.033 -0.44254,2e-4 -0.65711,-0.073 -0.42917,-0.1465 -0.79704,-0.4593 -0.88365,-0.5399 -0.20845,-0.1939 -0.38182,-0.7569 -0.42588,-1.4798 -0.044,-0.7228 0.005,-1.6096 0.0844,-2.506 0.0792,-0.8964 0.18774,-1.8029 0.25887,-2.574 0.0711,-0.771 0.11134,-1.3943 0.0304,-1.7841 -0.2298,-1.1062 -0.52388,-1.6954 -0.73106,-2.1749 -0.201,-0.4653 -0.31772,-0.8325 -0.26403,-1.5437 0.42301,-0.3587 1.05927,-1.0353 1.68879,-1.9757 0.66122,-0.9879 1.2902,-2.2348 1.55229,-3.5979 0.52282,-2.719 -0.46702,-5.9164 -5.53475,-8.2896 -0.0134,-0.01 -0.0227,-0.013 -0.0361,-0.02 a 0.29383554,0.21379632 0 0 0 -0.16747,-0.033 0.29383554,0.21379632 0 0 0 -0.18477,0.3737 c 4.07903,2.6159 4.61697,5.4924 3.73559,7.7235 -0.44069,1.1155 -1.2456,2.0677 -2.14898,2.7273 -0.90339,0.6595 -1.90174,1.0142 -2.68615,0.9925 -1.94864,-0.054 -4.16428,0.7971 -6.06495,1.7974 -1.90067,1.0004 -3.46599,2.1468 -4.07932,2.8108 a 0.29383554,0.21379632 0 0 0 -0.008,0.01 c -0.13893,0.1684 -0.095,0.3033 -0.0815,0.4823 0.0135,0.1789 0.0398,0.3931 0.0448,0.6375 0.01,0.4793 -0.0707,1.0684 -0.47978,1.6776 -3.10464,1.5734 -3.95327,3.4891 -3.87163,5.0208 0.0412,0.7731 0.30953,1.4475 0.62432,1.9461 0.1574,0.2493 0.32572,0.4544 0.49116,0.6096 0.16544,0.1552 0.29884,0.2718 0.54234,0.3169 a 0.29383554,0.21379632 0 0 0 0.36256,-0.2405 c -0.19363,-0.8977 0.0469,-1.6249 0.51713,-2.2433 3.03975,-0.021 4.73584,-0.6903 5.63345,-1.4191 2.44361,0.14 4.35227,0.1372 5.72074,-0.2888 0.0568,0.055 0.12293,0.1408 0.15532,0.2741 0.0679,0.2792 -0.0135,0.7866 -0.81091,1.6154 -0.75751,0.7874 -1.60407,2.311 -1.99427,4.0804 -0.7065,0.011 -2.52683,0.1034 -4.53542,0.7286 -2.519,0.7842 -5.31947,2.4362 -6.50965,5.7561 -6.44703,-0.6165 -11.19531,-2.8159 -14.46486,-5.8976 -3.3114,-3.1211 -5.10528,-7.1477 -5.55692,-11.3221 -0.90328,-8.3487 3.58984,-17.2561 11.774,-20.6335 2.60658,-1.0756 4.38625,-1.449 5.5387,-1.4291 1.15245,0.02 1.68835,0.3865 1.99746,0.9005 0.30911,0.5141 0.33281,1.1921 0.26403,1.7374 -0.0688,0.5454 -0.21924,0.9491 -0.21924,0.9491 a 0.29383554,0.21379632 0 0 0 0.50847,0.1936 c 0,0 1.41503,-1.1991 1.64112,-2.5678 0.11304,-0.6843 -0.0972,-1.4311 -0.95136,-2.0291 -0.85417,-0.598 -2.30789,-1.0437 -4.65096,-1.238 -0.33751,-0.028 -0.67957,-0.042 -1.02561,-0.041 z m 1.6e-4,0.4284 c 0.32486,-8e-4 0.6447,0.012 0.95879,0.038 2.26905,0.1882 3.59278,0.6193 4.31011,1.1215 0.71733,0.5022 0.87307,1.0788 0.77539,1.6701 -0.0916,0.5546 -0.43149,1.0943 -0.76385,1.5219 5.3e-4,0 0.001,0 0.002,-0.01 0.0735,-0.5831 0.0676,-1.3191 -0.31034,-1.9477 -0.37798,-0.6287 -1.1862,-1.1337 -2.52202,-1.1567 -1.33582,-0.023 -3.18821,0.3893 -5.84282,1.4848 -8.48703,3.5024 -12.98688,12.5567 -12.06915,21.0389 0.45886,4.2411 2.27906,8.3474 5.67702,11.5501 3.39794,3.2027 8.38185,5.4941 15.10011,6.0901 a 0.29383554,0.21379632 0 0 0 0.32126,-0.162 c 1.10495,-3.3298 3.80703,-4.8946 6.24972,-5.655 1.82622,-0.5685 3.49374,-0.6755 4.21947,-0.6933 -0.0242,0.1395 -0.0458,0.2801 -0.0638,0.4219 -0.26977,2.1228 0.20669,4.4761 2.4039,6.1932 l 0.43044,-0.291 c -2.04317,-1.5967 -2.50916,-3.8145 -2.24889,-5.8626 0.0223,-0.1758 0.0505,-0.3501 0.0832,-0.5227 a 0.29383554,0.21379632 0 0 0 0.0527,-0.2585 c 0.38003,-1.7321 1.22994,-3.2445 1.90287,-3.944 0.85166,-0.8852 1.01156,-1.5102 0.90839,-1.9348 -0.0405,-0.1668 -0.12201,-0.2985 -0.20786,-0.397 0.008,0 0.0163,-0.01 0.0243,-0.011 0.70602,-0.3206 1.20756,-0.8067 1.47015,-1.4618 0.26259,-0.655 0.30131,-1.4767 0.13316,-2.5139 a 0.29383554,0.21379632 0 0 0 -0.30184,-0.1916 0.29383554,0.21379632 0 0 0 -0.28179,0.2417 c 0.16261,1.0031 0.11593,1.7715 -0.11357,2.344 -0.22951,0.5725 -0.62696,0.9508 -1.21721,1.2188 -1.10755,0.5029 -2.97373,0.5835 -5.54022,0.4534 0.57599,-0.6656 0.59608,-1.2676 0.59608,-1.2676 a 0.29383554,0.21379632 0 0 0 -0.34951,-0.2137 c 0,0 -2.05962,0.2872 -4.01693,1.1235 -0.97866,0.4181 -1.9398,0.9759 -2.6028,1.7165 -0.5272,0.5889 -0.84373,1.301 -0.83733,2.1231 -0.0754,-0.092 -0.14781,-0.1593 -0.22258,-0.2777 -0.28336,-0.4488 -0.53256,-1.0739 -0.57042,-1.7844 -0.0757,-1.4211 0.66197,-3.1855 3.69672,-4.6964 a 0.29383554,0.21379632 0 0 0 0.0964,-0.08 c 0.48727,-0.7036 0.56896,-1.3854 0.55827,-1.9115 -0.005,-0.263 -0.0333,-0.489 -0.0459,-0.6551 -0.0124,-0.1644 0.0316,-0.2744 -0.001,-0.2358 0.52918,-0.57 2.08294,-1.7253 3.92795,-2.6964 1.85012,-0.9738 4.00996,-1.7634 5.69828,-1.7165 1.03407,0.029 2.14525,-0.4033 3.12448,-1.1182 0.97923,-0.7149 1.82973,-1.7251 2.29823,-2.911 0.69879,-1.769 0.52231,-3.9333 -1.36115,-6.0425 2.36303,1.944 2.78176,4.1337 2.40163,6.1106 -0.251,1.3054 -0.85826,2.5132 -1.4984,3.4696 -0.64014,0.9563 -1.32229,1.6676 -1.67436,1.9532 a 0.29383554,0.21379632 0 0 0 -0.0747,0.1291 c -0.0244,0.2764 -0.0222,0.5112 -7.6e-4,0.7212 -1.45642,0.093 -3.17101,0.5384 -4.74024,1.0775 -1.68096,0.5774 -3.1794,1.2584 -3.98383,1.7684 -0.94521,0.2341 -1.7988,0.8583 -1.77017,1.7438 a 0.29394534,0.21387621 0 1 0 0.58773,-0.01 c -0.0241,-0.7465 0.76633,-1.2392 1.586,-1.3745 0.40983,-0.068 0.81067,-0.038 1.09438,0.08 0.28371,0.1176 0.4785,0.3106 0.50832,0.6665 a 0.29383554,0.21379632 0 1 0 0.58652,-0.026 c -0.0396,-0.4723 -0.358,-0.8272 -0.80394,-1.012 -0.20381,-0.085 -0.42837,-0.1358 -0.66212,-0.1585 0.79634,-0.405 1.90982,-0.8791 3.10839,-1.2908 1.54044,-0.5291 3.23219,-0.957 4.56457,-1.0399 0.0549,0.2131 0.13023,0.4072 0.21666,0.6073 0.21359,0.4944 0.48759,1.0351 0.71101,2.1107 0.061,0.2937 0.035,0.927 -0.0355,1.6914 -0.0705,0.7644 -0.17907,1.6724 -0.25887,2.5753 -0.0798,0.9029 -0.13133,1.8 -0.0855,2.5523 0.0458,0.7523 0.15309,1.3555 0.54977,1.7245 0.11116,0.1034 0.50683,0.4619 1.09711,0.6634 0.29514,0.1007 0.64989,0.1607 1.02484,0.1048 0.37495,-0.056 0.75035,-0.2273 1.08755,-0.534 0.37217,-0.3385 0.53667,-0.8354 0.62538,-1.3979 0.0887,-0.5625 0.0876,-1.1932 0.0489,-1.787 -0.0244,-0.3743 -0.0646,-0.7293 -0.10749,-1.0468 0.0928,0.1039 0.18754,0.2005 0.28467,0.2876 0.2448,0.2197 0.50358,0.3883 0.79513,0.4767 0.59821,1.5668 1.93724,3.0776 2.91131,3.8336 a 0.29392352,0.21386033 0 0 0 0.0114,0.01 0.29392352,0.21386033 0 0 0 0.01,0.01 0.29392352,0.21386033 0 0 0 0.008,0 0.29392352,0.21386033 0 0 0 0.0143,0.01 0.29392352,0.21386033 0 0 0 0.0448,0.019 0.29392352,0.21386033 0 0 0 0.006,0 0.29392352,0.21386033 0 0 0 0.013,0 0.29392352,0.21386033 0 0 0 0.0149,0 0.29392352,0.21386033 0 0 0 0.009,0 0.29392352,0.21386033 0 0 0 0.0196,0 0.29392352,0.21386033 0 0 0 0.008,10e-4 0.29392352,0.21386033 0 0 0 0.0503,0 0.29392352,0.21386033 0 0 0 6e-4,0 0.29392352,0.21386033 0 0 0 0.0281,-7e-4 0.29392352,0.21386033 0 0 0 0.0121,0 0.29392352,0.21386033 0 0 0 0.0182,0 0.29392352,0.21386033 0 0 0 0.004,-7e-4 0.29392352,0.21386033 0 0 0 0.0243,0 0.29392352,0.21386033 0 0 0 0.0258,-0.01 0.29392352,0.21386033 0 0 0 7.6e-4,-2e-4 0.29392352,0.21386033 0 0 0 0.0134,0 0.29392352,0.21386033 0 0 0 0.0146,0 0.29392352,0.21386033 0 0 0 0.008,0 0.29392352,0.21386033 0 0 0 0.0172,-0.01 0.29392352,0.21386033 0 0 0 0.0439,-0.026 0.29392352,0.21386033 0 0 0 0.009,-0.01 c 0.97422,-0.7561 2.30804,-2.2666 2.90387,-3.8329 0.40397,-0.1183 0.7549,-0.3801 1.07495,-0.7408 -0.0417,0.3115 -0.0805,0.6578 -0.10431,1.0226 -0.0387,0.5938 -0.0394,1.2245 0.0493,1.787 0.0887,0.5625 0.25337,1.0594 0.62554,1.3979 0.3372,0.3067 0.71245,0.4781 1.08739,0.534 0.37495,0.056 0.72971,0 1.02485,-0.1048 0.59028,-0.2015 0.9861,-0.56 1.09726,-0.6634 0.39667,-0.369 0.50392,-0.9722 0.54977,-1.7245 0.0459,-0.7523 -0.006,-1.6494 -0.0856,-2.5523 -0.0798,-0.9029 -0.18819,-1.8109 -0.25872,-2.5753 -0.0705,-0.7644 -0.0967,-1.3977 -0.0357,-1.6914 0.22342,-1.0756 0.49741,-1.6163 0.71101,-2.1107 0.0864,-0.2001 0.16184,-0.3942 0.21666,-0.6073 1.33236,0.083 3.02431,0.5108 4.56457,1.0399 1.19857,0.4117 2.3122,0.8858 3.10854,1.2908 -0.23375,0.023 -0.45846,0.074 -0.66228,0.1585 -0.44593,0.1848 -0.76435,0.5397 -0.80393,1.012 a 0.29383554,0.21379632 0 1 0 0.58651,0.026 c 0.0298,-0.3559 0.22477,-0.5489 0.50847,-0.6665 0.28372,-0.1176 0.6838,-0.1473 1.09363,-0.08 0.81967,0.1353 1.6109,0.628 1.58676,1.3745 a 0.29383554,0.21379632 0 1 0 0.58697,0.01 c 0.0286,-0.8857 -0.82485,-1.5101 -1.77033,-1.744 -0.8045,-0.51 -2.30278,-1.1909 -3.98352,-1.7682 -1.56934,-0.5391 -3.28368,-0.985 -4.74009,-1.0775 0.0213,-0.21 0.0235,-0.4448 -9.1e-4,-0.7212 a 0.29383554,0.21379632 0 0 0 -0.0741,-0.1291 c -0.35207,-0.2856 -1.03438,-0.9969 -1.67452,-1.9532 -0.64013,-0.9564 -1.24785,-2.1642 -1.49885,-3.4696 -0.38007,-1.9767 0.0389,-4.166 2.40102,-6.1097 -1.88275,2.1089 -2.05878,4.2729 -1.36008,6.0416 0.4685,1.1859 1.319,2.1961 2.29823,2.911 0.97922,0.7149 2.09056,1.1469 3.12463,1.1182 1.68831,-0.047 3.84801,0.7427 5.69812,1.7165 1.84501,0.9711 3.39877,2.1264 3.92796,2.6964 -0.0328,-0.039 0.0114,0.071 -0.001,0.2358 -0.0126,0.1661 -0.0407,0.3921 -0.046,0.6551 -0.0107,0.5261 0.0712,1.2079 0.55843,1.9115 a 0.29383554,0.21379632 0 0 0 0.0964,0.08 c 3.03475,1.5109 3.77231,3.2753 3.69657,4.6964 -0.0379,0.7105 -0.28691,1.3356 -0.57027,1.7844 -0.075,0.1188 -0.14779,0.1866 -0.22334,0.2785 0.007,-0.8225 -0.3098,-1.5348 -0.83718,-2.1239 -0.663,-0.7406 -1.62369,-1.2984 -2.60234,-1.7165 -1.95732,-0.8363 -4.01693,-1.1235 -4.01693,-1.1235 a 0.29383554,0.21379632 0 0 0 -0.34951,0.2137 c 0,0 0.0201,0.602 0.59608,1.2676 -2.56655,0.1301 -4.43329,0.05 -5.54083,-0.4534 -0.59025,-0.268 -0.98756,-0.6463 -1.21706,-1.2188 -0.2295,-0.5725 -0.27618,-1.3409 -0.11357,-2.344 a 0.29383554,0.21379632 0 0 0 -0.29044,-0.2421 0.29383554,0.21379632 0 0 0 -0.29258,0.192 c -0.16815,1.0372 -0.13004,1.8589 0.13255,2.5139 0.26259,0.6551 0.76413,1.1412 1.47015,1.4618 0.008,0 0.0163,0.01 0.0243,0.011 -0.0857,0.099 -0.16687,0.2302 -0.2074,0.397 -0.10317,0.4246 0.0567,1.0496 0.90839,1.9348 0.67294,0.6995 1.52284,2.212 1.90287,3.9441 a 0.29383554,0.21379632 0 0 0 0.0528,0.2581 c 0.0327,0.1728 0.0609,0.3472 0.0832,0.523 0.26027,2.0481 -0.20572,4.2659 -2.24888,5.8626 l 0.43043,0.291 c 2.19721,-1.7171 2.67353,-4.0704 2.40375,-6.1932 -0.018,-0.1418 -0.0395,-0.2824 -0.0638,-0.4219 0.72573,0.018 2.39324,0.1248 4.21946,0.6933 2.44269,0.7604 5.14477,2.3252 6.24972,5.655 a 0.29383554,0.21379632 0 0 0 0.32142,0.162 c 6.71829,-0.596 11.70199,-2.8874 15.09995,-6.0901 3.39798,-3.2027 5.21816,-7.309 5.67703,-11.5501 0.91773,-8.4822 -3.58252,-17.5365 -12.06961,-21.0389 -2.65462,-1.0955 -4.50639,-1.5078 -5.84221,-1.4848 -1.33583,0.023 -2.14465,0.528 -2.52263,1.1567 -0.37799,0.6286 -0.38403,1.3646 -0.31049,1.9477 2.9e-4,0 6.2e-4,0 0.001,0.01 -0.33205,-0.4273 -0.6711,-0.9665 -0.76263,-1.5206 -0.0977,-0.5913 0.0579,-1.1679 0.77524,-1.6701 0.71732,-0.5022 2.04061,-0.9333 4.30964,-1.1215 4.02039,-0.3334 8.98397,1.5686 13.35956,4.9181 4.37558,3.3495 8.1581,8.1264 9.88084,13.4519 0.73732,2.2793 1.09804,4.6583 0.96973,7.0705 -0.002,0 -0.003,0.01 -0.005,0.012 a 0.29383554,0.21379632 0 0 0 -0.003,0.1291 c -0.19411,3.1787 -1.2408,6.4128 -3.39899,9.5505 -3.04088,4.4211 -8.29244,8.657 -16.50482,12.274 v -0.096 h -3.23426 v 1.4283 c -1.19758,0.4614 -2.44909,0.9108 -3.75745,1.3471 a 0.2939016,0.21384438 0 1 0 0.24506,0.3887 c 1.2184,-0.4063 2.3883,-0.8242 3.51239,-1.2527 v 2.8685 H 221.766 v -4.7799 h -3.2341 v 12.5418 h 3.2341 v -5.3174 h 4.77136 v 1.3055 c -1.19603,0.1124 -2.42067,0.1696 -3.67303,0.1649 a 0.29383554,0.21379632 0 1 0 -0.003,0.4275 c 1.25293,0 2.47864,-0.051 3.67607,-0.1614 v 3.5809 h 3.23426 v -4.0204 c 7.73549,-1.4002 14.09143,-5.1014 18.54419,-9.551 1.22318,-1.2223 2.304,-2.5011 3.23227,-3.8054 1.7925,-1.4158 3.25122,-2.0976 4.36598,-2.3109 1.123,-0.215 1.89735,0.01 2.48756,0.4556 0.59021,0.4451 0.96512,1.1337 1.11321,1.8132 0.0864,0.3963 0.0742,0.7678 0.0178,1.0994 -0.52372,-0.824 -1.25902,-1.4018 -2.01006,-1.64 -0.46827,-0.1485 -0.96822,-0.1649 -1.36691,0.014 -0.39869,0.1791 -0.64483,0.5274 -0.71329,0.9979 v 0 c -1.61609,10.3836 -17.21218,17.8645 -32.67563,17.304 a 0.29392463,0.21386114 0 1 0 -0.0293,0.4271 c 10.80397,0.3917 21.67598,-3.06 27.97046,-8.7117 1.5119,-1.0937 2.68592,-1.5161 3.52014,-1.5494 0.84047,-0.033 1.40029,0.2877 1.81451,0.8234 0.41421,0.5356 0.6294,1.2798 0.65817,1.9782 0.0101,0.2434 -0.0296,0.4628 -0.0625,0.6843 -0.23543,-0.5234 -0.62874,-1.0126 -1.14418,-1.3181 -0.44234,-0.2622 -1.03101,-0.3819 -1.56429,-0.1791 -0.53327,0.2029 -0.9615,0.6643 -1.30724,1.4487 -1.60675,3.6454 -4.37445,6.1319 -7.76649,7.8034 a 0.29383554,0.21379632 0 0 0 -0.10977,0.054 c -2.54789,1.2375 -5.44198,2.021 -8.45807,2.4935 -7.0907,1.1107 -14.8352,0.4711 -20.15553,-0.1136 a 0.29383554,0.21379632 0 1 0 -0.0878,0.4225 c 5.34063,0.587 13.14498,1.2403 20.36673,0.109 3.06666,-0.4804 6.03143,-1.2889 8.64952,-2.5621 2.3693,-0.3467 4.9632,-0.1068 6.36101,0.7906 0.70224,0.4508 1.12405,1.055 1.12004,1.8813 -0.003,0.6427 -0.28654,1.4275 -0.92615,2.3516 -0.0369,-0.3657 -0.12963,-0.7644 -0.32765,-1.117 -0.21378,-0.3807 -0.55685,-0.7249 -1.10061,-0.8325 -0.54374,-0.1076 -1.18668,0.048 -1.91728,0.4998 -3.00596,1.857 -6.21188,3.0208 -9.48883,3.6927 a 0.29383554,0.21379632 0 0 0 -0.0887,0.018 c -2.66204,0.5384 -5.37013,0.7538 -8.05541,0.7511 -6.02199,-0.01 -11.92,-1.1124 -16.85707,-2.1215 a 0.29385181,0.21380816 0 1 0 -0.15836,0.4118 c 4.94654,1.0109 10.89465,2.131 17.01482,2.1372 2.72985,0 5.49561,-0.2185 8.21847,-0.7701 3.06518,0.061 5.02635,0.7873 6.17412,1.8056 1.15316,1.0231 1.49947,2.362 1.23314,3.6743 -0.26631,1.3123 -1.15092,2.5884 -2.4165,3.453 -1.0174,0.695 -2.27314,1.1048 -3.66908,1.1018 0.46936,-0.2448 0.88677,-0.5782 1.21083,-0.9761 0.54784,-0.6728 0.85459,-1.505 0.72239,-2.3061 -0.13219,-0.8011 -0.72972,-1.5712 -1.93611,-2.0455 -1.20639,-0.4743 -2.9914,-0.6617 -5.52671,-0.3912 -2.61524,0.2791 -5.12669,0.4719 -7.78987,0.4258 a 0.29383554,0.21379632 0 0 0 -0.0647,0 c -5.07925,-0.095 -10.71657,-1.0625 -18.67917,-3.9593 a 0.29383993,0.21379951 0 1 0 -0.26282,0.3824 c 7.98656,2.9055 13.72439,3.8898 18.87381,3.9968 4.73082,1.8631 7.00108,4.3164 7.75631,6.7905 0.75721,2.4806 -0.0227,4.9954 -1.46727,6.9365 -1.4446,1.9411 -3.5667,3.2855 -5.34133,3.4775 -0.88731,0.096 -1.68139,-0.07 -2.36594,-0.5899 -0.54025,-0.4105 -0.99933,-1.0666 -1.31574,-1.9887 1.10677,0.8333 2.23901,1.1437 3.25702,0.9775 1.25073,-0.2042 2.22569,-1.0358 2.79987,-2.1082 1.14838,-2.1447 0.7312,-5.3733 -2.8026,-7.0745 -5.41894,-2.6089 -10.85052,-3.8878 -15.31707,-5.0166 -4.46655,-1.1289 -7.93094,-2.1138 -9.5239,-4.0455 a 0.29383554,0.21379632 0 0 0 -0.24111,-0.1065 0.29383554,0.21379632 0 0 0 -0.26281,0.3266 c 0.43234,0.5242 0.98133,0.9791 1.63064,1.3845 0.0832,1.7338 0.91042,2.5173 2.03101,3.2776 1.14105,0.7741 2.5738,1.562 4.05017,3.5314 1.47258,1.9643 2.18312,4.2501 3.21073,6.5135 0.97413,2.1456 2.28357,4.2635 4.79489,6.0479 -3.66281,0.523 -6.88332,-0.6697 -9.47972,-2.8601 -2.7171,-2.2924 -4.70638,-5.6533 -5.6421,-9.1176 -0.94524,-3.4995 -1.53954,-5.0765 -2.06578,-5.9481 -0.26311,-0.4358 -0.51674,-0.698 -0.77007,-0.911 -0.25333,-0.2131 -0.49234,-0.3726 -0.76901,-0.641 a 0.29383554,0.21379632 0 1 0 -0.46991,0.2564 c 0.30634,0.2972 0.56736,0.4735 0.79421,0.6643 0.22686,0.1908 0.43421,0.4009 0.67716,0.8033 0.48589,0.8048 1.08412,2.3685 2.02676,5.8583 0.95215,3.5251 2.96395,6.944 5.77343,9.3143 0.72736,0.6136 1.5119,1.1564 2.34605,1.6117 -0.50039,1.162 -0.66712,2.7065 -0.71587,3.9907 -0.0417,1.0976 0.007,1.6744 0.0258,1.962 -0.25707,-0.1413 -0.60838,-0.3491 -1.05977,-0.6668 -0.94132,-0.6626 -2.24056,-1.749 -3.65087,-3.4359 -2.82061,-3.3738 -6.08598,-9.1514 -7.80308,-18.7433 a 0.29383554,0.21379632 0 0 0 -0.30472,-0.1887 0.29383554,0.21379632 0 0 0 -0.27769,0.2438 c 0.36806,2.056 0.80763,3.9376 1.29859,5.6613 a 0.29383554,0.21379632 0 0 0 -0.019,0.049 c -0.60976,2.3797 -1.10701,3.9777 -0.0574,9.201 0.41941,2.0872 0.5903,4.0142 0.60731,5.7446 a 0.29383554,0.21379632 0 0 0 -1.5e-4,0.1598 c 2.4e-4,5e-4 5.2e-4,9e-4 7.6e-4,0 0.0213,4.9401 -1.21307,8.2359 -1.50705,8.9566 -0.10769,-0.1089 -0.21311,-0.2056 -0.36378,-0.4292 -0.41863,-0.6213 -0.96037,-1.7512 -1.39789,-3.7414 -0.87503,-3.9805 -1.33531,-11.4009 0.35695,-25.0865 a 0.29383554,0.21379632 0 0 0 -0.30016,-0.2358 0.29383554,0.21379632 0 0 0 -0.28529,0.1975 c -1.67537,13.5489 -1.24938,20.9793 -0.38169,25.0497 -0.34697,2.4516 -1.22147,3.6352 -1.62442,4.1213 -0.35632,-0.9033 -1.4878,-4.1158 -1.46302,-8.8491 a 0.29383554,0.21379632 0 0 0 4.6e-4,-0.057 c 0.0126,-1.751 0.18222,-3.7069 0.60929,-5.8322 1.04962,-5.2233 0.55237,-6.8213 -0.0574,-9.201 a 0.29383554,0.21379632 0 0 0 -0.0194,-0.047 c 0.49118,-1.7242 0.93086,-3.6064 1.29905,-5.6632 a 0.29383554,0.21379632 0 0 0 -0.28635,-0.2442 0.29383554,0.21379632 0 0 0 -0.29607,0.1891 c -1.7171,9.5919 -4.98244,15.3695 -7.80307,18.7433 -1.41032,1.6869 -2.70939,2.7733 -3.65072,3.4359 -0.45139,0.3177 -0.80286,0.5255 -1.05992,0.6668 0.0185,-0.2876 0.0675,-0.8644 0.0258,-1.962 -0.0488,-1.2843 -0.2154,-2.8289 -0.71587,-3.991 0.83395,-0.4552 1.61835,-0.9979 2.3456,-1.6114 2.80949,-2.3703 4.82188,-5.7892 5.77404,-9.3143 0.94264,-3.4898 1.54087,-5.0535 2.02676,-5.8583 0.24295,-0.4024 0.4503,-0.6125 0.67716,-0.8033 0.22686,-0.1908 0.48786,-0.3671 0.79421,-0.6643 a 0.2939857,0.21390558 0 1 0 -0.47067,-0.2564 c -0.27668,0.2684 -0.51492,0.4279 -0.76825,0.641 -0.25333,0.213 -0.50696,0.4752 -0.77007,0.911 -0.52624,0.8716 -1.12069,2.4486 -2.06594,5.9481 -0.93572,3.4643 -2.92483,6.8252 -5.64194,9.1176 -2.59628,2.1903 -5.81729,3.3829 -9.47987,2.8601 2.51132,-1.7844 3.82091,-3.9023 4.79504,-6.0479 1.02761,-2.2634 1.738,-4.5492 3.21057,-6.5135 1.47638,-1.9694 2.90912,-2.7573 4.05018,-3.5314 1.12057,-0.7603 1.94775,-1.5438 2.03101,-3.2775 0.64937,-0.4054 1.19826,-0.8603 1.63064,-1.3846 a 0.29383554,0.21379632 0 0 0 -0.24217,-0.3266 0.29383554,0.21379632 0 0 0 -0.2616,0.1065 c -1.59297,1.9317 -5.05749,2.9166 -9.52405,4.0455 -4.46656,1.1288 -9.89799,2.4077 -15.31692,5.0166 -3.53379,1.7012 -3.95097,4.9298 -2.8026,7.0745 0.57418,1.0724 1.54899,1.904 2.79971,2.1082 1.01819,0.1662 2.15067,-0.1443 3.25764,-0.9779 -0.31642,0.9223 -0.77602,1.5785 -1.31636,1.9891 -0.68454,0.5202 -1.47863,0.6859 -2.36594,0.5899 -1.77461,-0.192 -3.89719,-1.5364 -5.34178,-3.4775 -1.44459,-1.9411 -2.22401,-4.4559 -1.46682,-6.9365 0.75523,-2.4741 3.02553,-4.9274 7.75631,-6.7905 5.14943,-0.107 10.88738,-1.0912 18.87396,-3.9968 a 0.29383993,0.21379951 0 1 0 -0.26281,-0.3824 c -7.97868,2.9026 -13.62274,3.868 -18.70999,3.9599 a 0.29383554,0.21379632 0 0 0 -0.01,2e-4 c -2.67215,0.048 -5.19104,-0.1454 -7.81416,-0.4253 -2.5353,-0.2705 -4.32033,-0.083 -5.52671,0.3912 -1.20639,0.4743 -1.80393,1.2444 -1.93612,2.0455 -0.13219,0.8011 0.17471,1.6333 0.72255,2.3061 0.32405,0.3979 0.74147,0.7313 1.21083,0.9761 -1.39593,0 -2.65184,-0.4068 -3.66924,-1.1018 -1.26557,-0.8646 -2.15003,-2.1407 -2.41635,-3.453 -0.26632,-1.3123 0.08,-2.6512 1.23315,-3.6743 1.14777,-1.0183 3.10888,-1.7451 6.17411,-1.8056 2.72285,0.5516 5.48852,0.7729 8.21833,0.7701 6.12014,-0.01 12.06843,-1.1263 17.01497,-2.1372 a 0.29393414,0.21386806 0 1 0 -0.15897,-0.4118 c -4.93707,1.0091 -10.83511,2.1154 -16.85706,2.1215 -2.67823,0 -5.37899,-0.2115 -8.03416,-0.7468 a 0.29383554,0.21379632 0 0 0 -0.11494,-0.024 c -3.27496,-0.6721 -6.47905,-1.8356 -9.48336,-3.6916 -0.7306,-0.4514 -1.37339,-0.6074 -1.91714,-0.4998 -0.54375,0.1076 -0.88682,0.4518 -1.1006,0.8325 -0.19803,0.3526 -0.29087,0.7513 -0.3278,1.117 -0.63961,-0.9241 -0.92304,-1.7089 -0.92616,-2.3516 -0.004,-0.8263 0.41797,-1.4305 1.12019,-1.8813 1.39778,-0.8974 3.99161,-1.1373 6.36086,-0.7906 2.61811,1.2732 5.58303,2.0817 8.64967,2.5621 7.22173,1.1313 15.02551,0.478 20.36613,-0.109 a 0.29383554,0.21379632 0 1 0 -0.0878,-0.4225 c -5.32033,0.5847 -13.06441,1.2243 -20.15508,0.1136 -3.01614,-0.4725 -5.91013,-1.2561 -8.45807,-2.4936 a 0.29383554,0.21379632 0 0 0 -0.11007,-0.054 c -3.39183,-1.6715 -6.15952,-4.158 -7.76618,-7.8032 -0.34574,-0.7844 -0.77398,-1.2458 -1.30725,-1.4487 -0.53327,-0.2028 -1.12195,-0.083 -1.56429,0.1791 -0.51543,0.3055 -0.90876,0.7947 -1.14418,1.3181 -0.0329,-0.2215 -0.0726,-0.4409 -0.0625,-0.6843 0.0288,-0.6984 0.24396,-1.4426 0.65818,-1.9782 0.41421,-0.5357 0.97404,-0.8569 1.8145,-0.8234 0.83451,0.033 2.00918,0.456 3.52181,1.5505 6.2945,5.6511 17.16551,9.1024 27.96879,8.7108 a 0.29392856,0.213864 0 0 0 -0.0292,-0.4272 c -15.46337,0.5605 -31.05954,-6.9205 -32.67562,-17.3041 v 0 c -0.0685,-0.4704 -0.3146,-0.8188 -0.71329,-0.9979 -0.39869,-0.179 -0.89865,-0.1627 -1.36692,-0.014 -0.75104,0.2382 -1.48649,0.816 -2.01021,1.64 -0.0564,-0.3316 -0.0686,-0.703 0.0178,-1.0993 0.14808,-0.6794 0.52315,-1.3682 1.11336,-1.8133 0.5902,-0.4451 1.36456,-0.6704 2.48756,-0.4555 1.11475,0.2133 2.57333,0.895 4.36583,2.3108 0.92826,1.3043 2.00924,2.5831 3.23242,3.8054 4.41357,4.4104 10.69708,8.0853 18.34044,9.5132 v 4.0582 h 3.23425 v -3.5999 c 1.26192,0.1229 2.55569,0.1854 3.87967,0.1804 a 0.29383554,0.21379632 0 1 0 -0.003,-0.4275 c -1.32326,0 -2.61592,-0.058 -3.87618,-0.1839 v -1.2865 h 4.77136 v 5.3174 h 3.2341 v -12.5418 h -3.2341 v 4.7799 h -4.77136 v -2.9465 c 1.18622,0.4558 2.42394,0.8998 3.71615,1.3307 a 0.29387829,0.21382743 0 1 0 0.2449,-0.3887 c -1.38272,-0.4611 -2.70194,-0.9368 -3.96105,-1.4259 v -1.3495 h -3.23425 v 0.01 c -8.09541,-3.5971 -13.28547,-7.7992 -16.30107,-12.1836 -2.15819,-3.1377 -3.20488,-6.3718 -3.39899,-9.5505 a 0.29383554,0.21379632 0 0 0 -0.003,-0.1291 c -0.002,0 -0.003,-0.01 -0.005,-0.012 -0.12832,-2.4122 0.23226,-4.7912 0.96957,-7.0705 1.72274,-5.3255 5.50544,-10.1024 9.88101,-13.4519 4.03372,-3.0878 8.56669,-4.9455 12.40014,-4.9557 z m 31.83206,11.5873 c 0.13427,0.987 0.32915,2.0135 0.61628,2.8864 0.28916,0.879 0.64536,1.6036 1.23315,1.9987 0.7983,0.5668 1.50442,1.586 1.62805,2.7356 0.12365,1.1496 -0.31513,2.4267 -1.78641,3.5654 a 0.29383554,0.21379632 0 0 0 -0.0668,0.076 c -0.0703,0.086 -0.1116,0.1851 -0.1116,0.2911 0,0.3142 0.35654,0.5737 0.78845,0.5737 0.4319,0 0.78784,-0.2595 0.78784,-0.5737 0,-0.2272 -0.1864,-0.4251 -0.45261,-0.5177 1.17374,-1.1145 1.54595,-2.3428 1.42704,-3.4484 -0.0136,-0.1269 -0.0352,-0.2517 -0.0609,-0.3751 1.37814,1.3721 1.62924,3.4299 1.27733,5.291 -0.20363,1.077 -0.60568,2.0827 -1.07874,2.8313 -0.27874,0.4411 -0.59518,0.7827 -0.87757,1.0026 0.0772,-0.3252 0.11653,-0.6486 0.1075,-0.9642 a 0.29383554,0.21379632 0 0 0 -0.30473,-0.2121 0.29383554,0.21379632 0 0 0 -0.283,0.2213 c 0.0494,1.7255 -1.64822,3.9428 -2.83905,4.9657 -1.19205,-1.0232 -2.89709,-3.2406 -2.84769,-4.9657 a 0.29383554,0.21379632 0 0 0 -0.29212,-0.2213 0.29383554,0.21379632 0 0 0 -0.29546,0.2121 c -0.009,0.3204 0.0314,0.649 0.11129,0.9793 -0.0464,-0.035 -0.0932,-0.073 -0.14059,-0.1154 -0.24606,-0.2208 -0.49976,-0.5323 -0.73455,-0.9089 -0.46956,-0.7533 -0.86668,-1.7656 -1.06553,-2.8489 -0.34058,-1.8554 -0.0878,-3.9044 1.26033,-5.2792 -0.0269,0.1274 -0.0492,0.2564 -0.0633,0.3875 -0.11891,1.1055 0.25318,2.3339 1.42688,3.4484 -0.26637,0.093 -0.45305,0.2905 -0.45305,0.5177 0,0.3142 0.35654,0.5737 0.78844,0.5737 0.43191,0 0.78845,-0.2595 0.78845,-0.5737 0,-0.106 -0.0413,-0.2053 -0.1116,-0.291 a 0.29383554,0.21379632 0 0 0 -0.0668,-0.076 c -1.47129,-1.1387 -1.91006,-2.4158 -1.78642,-3.5654 0.12365,-1.1496 0.8296,-2.1688 1.62791,-2.7356 h -0.007 c 0.59166,-0.3941 0.9499,-1.1209 1.24013,-2.0032 0.28713,-0.8729 0.48201,-1.8994 0.61627,-2.8864 z m -60.03573,10.6967 c 1.31554,0.3654 2.26976,0.7395 2.8858,1.1979 0.70407,0.5239 1.10845,1.1678 1.48458,2.0725 0.18425,3.2615 1.2479,6.5847 3.46367,9.8062 3.10749,4.5179 8.47631,8.8293 16.8267,12.4924 v 7.5367 c -7.42728,-1.4183 -13.54367,-5.0055 -17.86536,-9.3241 -1.20508,-1.2043 -2.26828,-2.4653 -3.18066,-3.7508 a 0.29384973,0.21380664 0 0 0 -0.0196,-0.027 c -3.33823,-4.7157 -4.63977,-9.7579 -3.40809,-13.5361 0.84534,-2.5931 1.13457,-4.2338 -0.18705,-6.4675 z m 120.07147,0 c -1.32163,2.2337 -1.03239,3.8744 -0.18705,6.4675 1.23153,3.7777 -0.0696,8.819 -3.40688,13.5342 a 0.29384982,0.21380671 0 0 0 -0.0193,0.027 c -0.91275,1.2863 -1.97637,2.5481 -3.18218,3.7531 -4.361,4.3578 -10.55015,7.9705 -18.06911,9.3617 v -7.4858 c 8.46645,-3.682 13.89784,-8.0261 17.03045,-12.5805 2.21587,-3.2216 3.27951,-6.5451 3.46366,-9.807 0.37611,-0.9044 0.78044,-1.5482 1.48443,-2.0721 0.61605,-0.4584 1.57041,-0.8325 2.88596,-1.1979 z m -62.33685,0.7106 c 0.11434,0 0.20087,0.063 0.20087,0.1462 0,0.083 -0.0865,0.1461 -0.20087,0.1461 -0.11433,0 -0.20087,-0.063 -0.20087,-0.1461 0,-0.083 0.0865,-0.1462 0.20087,-0.1462 z m 4.60223,0 c 0.11433,0 0.20026,0.063 0.20026,0.1462 0,0.083 -0.0859,0.1461 -0.20026,0.1461 -0.11434,0 -0.20087,-0.063 -0.20087,-0.1461 0,-0.083 0.0865,-0.1462 0.20087,-0.1462 z m -19.51407,1.0697 c -0.21646,0 -0.4165,0.036 -0.58363,0.109 -0.16713,0.073 -0.32112,0.2026 -0.32127,0.3725 0,0.1698 0.15418,0.2991 0.32127,0.3724 0.1671,0.073 0.36656,0.109 0.58302,0.109 0.21647,0 0.41652,-0.036 0.58363,-0.109 0.16711,-0.073 0.32135,-0.2022 0.32142,-0.372 8e-5,-0.1698 -0.15373,-0.2993 -0.32081,-0.3725 -0.16708,-0.073 -0.36717,-0.1093 -0.58363,-0.1094 z m 34.42575,0 c -0.21646,10e-5 -0.4164,0.036 -0.58347,0.1094 -0.16708,0.073 -0.3209,0.2027 -0.32082,0.3725 8e-5,0.1698 0.1537,0.2988 0.32082,0.372 0.16711,0.073 0.36701,0.109 0.58347,0.109 0.21647,0 0.41654,-0.036 0.58363,-0.109 0.1671,-0.073 0.32082,-0.2026 0.32082,-0.3724 -1.6e-4,-0.1699 -0.15369,-0.2994 -0.32082,-0.3725 -0.16712,-0.073 -0.36716,-0.109 -0.58363,-0.109 z m -34.42575,0.4276 c 0.12084,0 0.22606,0.024 0.27997,0.048 0.008,0 0.007,0 0.012,0.01 -0.004,0 -0.006,0 -0.012,0.01 -0.054,0.024 -0.15913,0.047 -0.27997,0.047 -0.12084,0 -0.22664,-0.024 -0.28058,-0.047 -0.006,0 -0.008,0 -0.0128,-0.01 0.004,0 0.007,0 0.0128,-0.01 0.054,-0.024 0.15974,-0.048 0.28058,-0.048 z m 34.42575,0 c 0.12084,-10e-5 0.22614,0.024 0.28013,0.048 0.006,0 0.009,0 0.013,0.01 -0.004,0 -0.007,0 -0.0124,0.01 -0.0539,0.024 -0.1599,0.047 -0.28074,0.047 -0.12083,0 -0.226,-0.024 -0.27996,-0.047 -0.006,0 -0.008,0 -0.012,-0.01 0.005,0 0.004,0 0.012,-0.01 0.0539,-0.024 0.15913,-0.048 0.27996,-0.048 z m -35.57054,2.9072 c -0.0675,0.2475 -0.21529,0.596 -0.70296,1.0242 -0.70922,0.6227 -2.13255,1.2427 -4.84895,1.3282 0.58117,-0.5523 1.33093,-1.0155 2.14382,-1.3628 1.53155,-0.6543 2.89351,-0.9033 3.40809,-0.9896 z m 36.71549,0 c 0.51487,0.086 1.87665,0.3354 3.40794,0.9896 0.81289,0.3473 1.56219,0.8105 2.14336,1.3628 -2.716,-0.086 -4.13918,-0.7056 -4.84834,-1.3282 -0.48768,-0.4282 -0.63545,-0.7767 -0.70296,-1.0242 z m -39.31768,19.9478 v 12.5418 h 8.91279 v -2.4445 h -5.67869 v -2.8729 h 5.16627 v -2.4445 h -5.16627 v -2.3354 h 5.49392 v -2.4445 z m 14.91063,0 -4.64535,12.5418 h 3.2508 l 0.79817,-2.285 h 5.05695 l 0.78966,2.285 h 3.25095 l -4.64549,-12.5418 z m 10.15596,0 v 12.5418 h 8.91279 v -2.4445 h -5.67869 v -10.0973 z m 6.60272,0 v 2.4445 h 4.16663 v 10.0973 h 3.2341 v -10.0973 h 4.15813 v -2.4445 z m -14.82666,2.9402 1.71369,4.9898 h -3.43573 z m 7.386,31.8777 c 1.68553,5.4547 3.88822,9.2138 5.92496,11.7597 -0.53069,1.0986 -0.76213,2.9215 -0.87985,4.5122 -0.10133,1.3692 -0.0914,2.1747 -0.0913,2.5215 -0.89437,-0.6441 -2.92257,-2.2935 -4.16784,-4.8129 -0.007,-1.7791 -0.17448,-3.7497 -0.59912,-5.8629 -0.90029,-4.4803 -0.66201,-6.1972 -0.1869,-8.1176 z m -6.53774,10e-4 c 0.47507,1.92 0.71339,3.6371 -0.18675,8.1166 -0.42415,2.1107 -0.59139,4.0794 -0.59896,5.8568 -1.24348,2.5419 -3.28879,4.2053 -4.18789,4.8528 1.8e-4,-0.3468 0.0101,-1.1523 -0.0913,-2.5215 -0.1179,-1.5933 -0.35,-3.4197 -0.88257,-4.5177 2.04292,-2.5462 4.25568,-6.3127 5.94742,-11.787 z"
           id="path155"
           inkscape:connector-curvature="0" />
      </g>
    </g>
  </g>
</svg>
