<?xml version="1.0" encoding="UTF-8" standalone="no"?>
<!-- Created with Inkscape (http://www.inkscape.org/) -->

<svg
   xmlns:dc="http://purl.org/dc/elements/1.1/"
   xmlns:cc="http://creativecommons.org/ns#"
   xmlns:rdf="http://www.w3.org/1999/02/22-rdf-syntax-ns#"
   xmlns:svg="http://www.w3.org/2000/svg"
   xmlns="http://www.w3.org/2000/svg"
   xmlns:sodipodi="http://sodipodi.sourceforge.net/DTD/sodipodi-0.dtd"
   xmlns:inkscape="http://www.inkscape.org/namespaces/inkscape"
   width="445.41147mm"
   height="496.28842mm"
   viewBox="0 0 445.41147 496.28842"
   version="1.1"
   id="svg8"
   inkscape:version="0.92.4 (5da689c313, 2019-01-14)"
   sodipodi:docname="logo-phoenix-health-2mm-paths-union.svg">
  <defs
     id="defs2" />
  <sodipodi:namedview
     id="base"
     pagecolor="#ffffff"
     bordercolor="#666666"
     borderopacity="1.0"
     inkscape:pageopacity="0.0"
     inkscape:pageshadow="2"
     inkscape:zoom="0.7"
     inkscape:cx="888.83171"
     inkscape:cy="987.59673"
     inkscape:document-units="mm"
     inkscape:current-layer="g256"
     showgrid="false"
     fit-margin-top="0"
     fit-margin-left="0"
     fit-margin-right="0"
     fit-margin-bottom="0"
     inkscape:window-width="1920"
     inkscape:window-height="1029"
     inkscape:window-x="0"
     inkscape:window-y="26"
     inkscape:window-maximized="1" />
  <metadata
     id="metadata5">
    <rdf:RDF>
      <cc:Work
         rdf:about="">
        <dc:format>image/svg+xml</dc:format>
        <dc:type
           rdf:resource="http://purl.org/dc/dcmitype/StillImage" />
        <dc:title></dc:title>
      </cc:Work>
    </rdf:RDF>
  </metadata>
  <g
     inkscape:label="Layer 1"
     inkscape:groupmode="layer"
     id="layer1"
     transform="translate(73.795495,35.565734)">
    <g
       id="g4886"
       style="stroke-width:2;stroke-miterlimit:4;stroke-dasharray:none" />
    <flowRoot
       xml:space="preserve"
       id="flowRoot4915"
       style="fill:black;fill-opacity:1;stroke:none;font-family:sans-serif;font-style:normal;font-weight:normal;font-size:40px;line-height:1.25;letter-spacing:0px;word-spacing:0px;stroke-width:2;stroke-miterlimit:4;stroke-dasharray:none"><flowRegion
         id="flowRegion4917"
         style="stroke-width:2;stroke-miterlimit:4;stroke-dasharray:none"><rect
           id="rect4919"
           width="88.893425"
           height="70.710678"
           x="595.98999"
           y="966.59845"
           style="stroke-width:2;stroke-miterlimit:4;stroke-dasharray:none" /></flowRegion><flowPara
         id="flowPara4921" /></flowRoot>    <g
       aria-label="HEALTH"
       transform="matrix(0.30496756,0,0,0.41913868,-113.64755,-212.47362)"
       style="font-style:normal;font-weight:normal;font-size:40px;line-height:1.25;font-family:sans-serif;letter-spacing:0px;word-spacing:0px;fill:#000000;fill-opacity:1;stroke:none"
       id="flowRoot4907-3">
      <g
         id="g256">
        <path
           style="color:#000000;font-style:normal;font-variant:normal;font-weight:normal;font-stretch:normal;font-size:medium;line-height:normal;font-family:sans-serif;font-variant-ligatures:normal;font-variant-position:normal;font-variant-caps:normal;font-variant-numeric:normal;font-variant-alternates:normal;font-feature-settings:normal;text-indent:0;text-align:start;text-decoration:none;text-decoration-line:none;text-decoration-style:solid;text-decoration-color:#000000;letter-spacing:normal;word-spacing:normal;text-transform:none;writing-mode:lr-tb;direction:ltr;text-orientation:mixed;dominant-baseline:auto;baseline-shift:baseline;text-anchor:start;white-space:normal;shape-padding:0;clip-rule:nonzero;display:inline;overflow:visible;visibility:visible;opacity:1;isolation:auto;mix-blend-mode:normal;color-interpolation:sRGB;color-interpolation-filters:linearRGB;solid-color:#000000;solid-opacity:1;vector-effect:none;fill:#000000;fill-opacity:1;fill-rule:nonzero;stroke:none;stroke-width:7.55905533;stroke-linecap:butt;stroke-linejoin:miter;stroke-miterlimit:4;stroke-dasharray:none;stroke-dashoffset:0;stroke-opacity:1;color-rendering:auto;image-rendering:auto;shape-rendering:auto;text-rendering:auto;enable-background:accumulate"
           d="M 432.23242 -1.8925781 C 429.56156 -1.8896086 426.87258 -1.7983682 424.16602 -1.6191406 C 373.64349 1.7264594 317.34393 35.374964 267.24219 88.085938 C 209.98305 148.32705 160.75285 233.81952 138.25781 329.39258 C 130.21744 363.55313 125.62602 399.0136 125.30273 435.05078 C 121.78442 427.70321 117.54482 421.27524 111.94922 415.55273 C 101.51504 404.88191 86.697316 396.87841 64.003906 389.19336 A 3.7799055 3.7799055 0 0 0 62.896484 388.99414 A 3.7799055 3.7799055 0 0 0 59.404297 394.44141 C 80.462721 437.26034 76.109393 463.21299 64.476562 512.25586 C 49.33911 576.07393 62.65709 657.78098 98.859375 736.27344 C 82.124918 720.93787 67.606891 712.46535 54.908203 709.125 C 50.74025 708.02863 46.767587 707.52102 43.009766 707.52344 L 43.009766 707.52148 C 31.736304 707.52904 22.397045 712.1301 15.541016 719.23633 C 6.3996499 728.7113 1.2742746 742.21536 -0.81054688 755.36328 C -2.8953645 768.51116 -2.0550123 781.28624 2.046875 790.08789 A 3.7799055 3.7799055 0 0 0 9.0898438 789.60156 C 14.999751 770.36494 26.333054 757.83122 35.310547 753.91797 C 39.799291 751.96135 43.314516 752.06864 45.902344 753.66602 C 48.490175 755.26336 50.808723 758.80917 51.535156 765.66992 A 3.7799055 3.7799055 0 0 0 51.542969 765.69922 C 57.046199 814.29598 74.705071 859.28084 101.35547 899.11328 C 91.597515 892.85328 82.909017 889.79655 75.083984 889.36719 C 61.269271 888.6092 50.965088 896.71535 44.744141 907.77148 C 38.523189 918.82766 35.701097 932.9386 35.302734 946.22266 C 34.904372 959.50671 36.80017 971.86172 41.273438 979.95898 A 3.7799055 3.7799055 0 0 0 48.345703 977.78711 C 47.24701 965.8178 54.639558 948.0497 63.162109 941.10742 C 67.423383 937.63627 71.028922 936.69408 75.009766 938.77539 C 78.99061 940.8567 83.986012 947.08605 88.126953 959.99805 C 107.36981 1019.9998 139.59975 1062.9103 179.0957 1093.127 C 176.06509 1092.8288 173.03197 1092.624 170.00781 1092.5176 C 145.41422 1091.6522 121.48678 1097.2218 105.76953 1111.0898 C 95.291366 1120.3352 88.740427 1133.4867 88.798828 1150.0449 C 88.857222 1166.6031 95.281001 1186.47 109.94141 1210.125 A 3.7799055 3.7799055 0 0 0 116.62109 1206.6406 C 116.1218 1205.4786 115.28541 1199.7902 115.625 1193.5898 C 115.96459 1187.3895 117.20578 1180.2882 119.48633 1174.707 C 121.76688 1169.1259 124.89122 1165.4393 128.625 1164.4238 C 132.35878 1163.4083 138.01129 1164.5834 146.42188 1171.7246 C 180.34213 1200.5258 216.29065 1220.1245 253.06641 1232.791 C 222.41233 1237.0256 200.80513 1249.2862 187.1543 1265.9316 C 170.74064 1285.9459 165.98643 1311.9041 169.66016 1336.7832 C 173.33388 1361.6623 185.35729 1385.635 203.04883 1402.2461 C 220.74037 1418.8572 244.40336 1428.0402 270.36328 1422.5469 A 3.7799055 3.7799055 0 0 0 270.3418 1415.1426 C 261.63565 1413.3522 252.62339 1405.6873 246.35156 1395.1016 C 240.07973 1384.5157 236.60285 1371.2249 238.06055 1359.084 C 239.51824 1346.9431 245.56824 1335.9585 259.05469 1328.6719 C 272.54114 1321.3852 293.85459 1317.9529 325.46289 1322.5879 C 354.76528 1326.8848 383.27817 1329.9833 413.00781 1330.1797 C 358.49125 1363.1329 330.83205 1405.5974 321.31445 1448.4492 C 311.10277 1494.4262 321.57966 1540.602 340.91992 1576.3184 C 360.26018 1612.0347 388.29716 1637.6892 415.16797 1641.6855 C 428.60337 1643.6837 441.82786 1639.8062 452.17188 1629.0039 C 462.51589 1618.2016 470.10454 1600.864 474.02344 1575.8613 A 3.7799055 3.7799055 0 0 0 467.23242 1573.0566 C 451.02784 1595.4295 435.93825 1601.3372 423.39844 1598.5234 C 410.85862 1595.7097 399.57637 1583.3532 392.76953 1565.8809 C 379.15585 1530.9362 383.95671 1477.638 425.95117 1449.8516 C 494.66957 1404.383 563.72065 1382.0004 621.29883 1362 C 660.23829 1348.474 694.13239 1336.0829 718.92188 1317.9531 C 716.91292 1342.1926 708.43636 1352.106 695.55273 1364.1191 C 681.31843 1377.3917 661.55593 1392.5715 641.97656 1428.4668 C 622.34827 1464.4519 613.20051 1505.3196 600.13477 1544.8711 C 587.06903 1584.4226 570.21529 1622.5826 535.60938 1653.9023 A 3.7799055 3.7799055 0 0 0 537.21875 1660.3691 C 573.69301 1669.655 607.37679 1661.4125 636.625 1641.666 C 642.06734 1660.6124 644.18051 1686.3229 644.77344 1707.791 C 645.41613 1731.0612 644.375 1749.3438 644.375 1749.3438 A 3.7799055 3.7799055 0 0 0 650.02148 1752.8418 C 650.02148 1752.8418 658.31224 1748.0849 670.89062 1735.916 C 683.21503 1723.9928 699.90553 1704.7853 717.94336 1675.4629 C 722.86835 1693.7233 725.63113 1722.1612 726.9707 1747.0391 C 728.51063 1775.6378 728.35156 1799.7168 728.35156 1799.7168 A 3.7799055 3.7799055 0 0 0 734.56641 1802.6406 C 734.56641 1802.6406 767.48727 1774.9373 789.77734 1725.1309 C 792.00216 1816.7703 810.98438 1875.0195 810.98438 1875.0195 A 3.7799055 3.7799055 0 0 0 817.63477 1876.0684 C 817.63477 1876.0684 832.8179 1854.9671 840.81055 1813.9277 C 845.67939 1837.2375 851.0567 1852.0808 855.6582 1861.4668 C 858.5794 1867.4253 861.19279 1871.2067 863.17383 1873.5586 C 865.15483 1875.9106 866.87891 1877.0645 866.87891 1877.0645 A 3.7799055 3.7799055 0 0 0 872.46094 1875.0195 C 872.46094 1875.0195 891.44674 1816.7574 893.66797 1725.0996 C 915.95315 1774.5462 948.61914 1802.043 948.61914 1802.043 A 3.7799055 3.7799055 0 0 0 954.83398 1799.1191 C 954.83398 1799.1191 954.67495 1775.0401 956.21484 1746.4414 C 957.55122 1721.6236 960.30632 1693.2653 965.20898 1675 C 983.35842 1704.5901 1000.1639 1723.9286 1012.5547 1735.916 C 1025.133 1748.0849 1033.4219 1752.8418 1033.4219 1752.8418 A 3.7799055 3.7799055 0 0 0 1039.0703 1749.3438 C 1039.0703 1749.3438 1038.0292 1731.0612 1038.6719 1707.791 C 1039.2648 1686.3222 1041.3708 1660.6106 1046.8125 1641.6641 C 1076.0634 1661.4117 1109.7494 1669.6552 1146.2246 1660.3691 A 3.7799055 3.7799055 0 0 0 1147.8262 1653.9023 C 1113.2203 1622.5826 1096.3743 1584.4226 1083.3086 1544.8711 C 1070.2428 1505.3196 1061.097 1464.4519 1041.4688 1428.4668 C 1021.8895 1392.5715 1002.1171 1377.3917 987.88281 1364.1191 C 974.99926 1352.106 966.53123 1342.1926 964.52344 1317.9531 C 989.3129 1336.0828 1023.2054 1348.474 1062.1445 1362 C 1119.7226 1382.0004 1188.7737 1404.3829 1257.4922 1449.8516 C 1299.4869 1477.638 1304.2876 1530.9362 1290.6738 1565.8809 C 1283.867 1583.3532 1272.579 1595.7097 1260.0391 1598.5234 C 1247.4992 1601.3372 1232.4175 1595.4295 1216.2129 1573.0566 A 3.7799055 3.7799055 0 0 0 1209.4141 1575.8613 C 1213.333 1600.864 1220.9274 1618.2016 1231.2715 1629.0039 C 1241.6155 1639.8062 1254.8419 1643.6837 1268.2773 1641.6855 C 1295.1483 1637.6892 1323.1831 1612.0347 1342.5234 1576.3184 C 1361.8638 1540.602 1372.3426 1494.4262 1362.1309 1448.4492 C 1352.6132 1405.5974 1324.9474 1363.1329 1270.4297 1330.1797 C 1300.1618 1329.9838 1328.6776 1326.8851 1357.9824 1322.5879 C 1389.5909 1317.9528 1410.9021 1321.3852 1424.3887 1328.6719 C 1437.8752 1335.9585 1443.9251 1346.9431 1445.3828 1359.084 C 1446.8405 1371.2249 1443.3656 1384.5157 1437.0938 1395.1016 C 1430.8219 1405.6873 1421.8097 1413.3522 1413.1035 1415.1426 A 3.7799055 3.7799055 0 0 0 1413.0801 1422.5469 C 1439.0401 1428.0402 1462.697 1418.8572 1480.3887 1402.2461 C 1498.0803 1385.635 1510.1095 1361.6623 1513.7832 1336.7832 C 1517.4569 1311.9041 1512.7028 1285.9459 1496.2891 1265.9316 C 1482.6376 1249.2855 1461.0292 1237.0251 1430.373 1232.791 C 1467.1501 1220.1246 1503.0998 1200.5268 1537.0215 1171.7246 C 1545.4321 1164.5833 1551.0865 1163.4083 1554.8203 1164.4238 C 1558.5541 1165.4393 1561.6784 1169.1259 1563.959 1174.707 C 1566.2396 1180.2882 1567.4807 1187.3895 1567.8203 1193.5898 C 1568.1601 1199.7902 1567.3215 1205.4786 1566.8223 1206.6406 A 3.7799055 3.7799055 0 0 0 1573.5039 1210.125 C 1588.1644 1186.47 1594.5861 1166.6031 1594.6445 1150.0449 C 1594.7031 1133.4867 1588.152 1120.3352 1577.6738 1111.0898 C 1561.9565 1097.2218 1538.0312 1091.6522 1513.4375 1092.5176 C 1510.4139 1092.6239 1507.3796 1092.8288 1504.3496 1093.127 C 1543.8454 1062.9103 1576.0735 1019.9997 1595.3164 959.99805 C 1599.4574 947.08605 1604.4547 940.8567 1608.4355 938.77539 C 1612.4164 936.69408 1616.0297 937.63627 1620.291 941.10742 C 1628.8136 948.0497 1636.1964 965.8178 1635.0977 977.78711 A 3.7799055 3.7799055 0 0 0 1642.1699 979.95898 C 1646.6432 971.86172 1648.5409 959.50671 1648.1426 946.22266 C 1647.7442 932.9386 1644.928 918.82766 1638.707 907.77148 C 1632.486 896.71535 1622.1761 888.6092 1608.3613 889.36719 C 1600.5384 889.79643 1591.8523 892.85093 1582.0977 899.10742 C 1608.7474 859.27587 1626.4051 814.29257 1631.9082 765.69727 A 3.7799055 3.7799055 0 0 0 1631.9082 765.66797 C 1632.6346 758.80726 1634.9532 755.2614 1637.541 753.66406 C 1640.1289 752.06668 1643.646 751.95939 1648.1348 753.91602 C 1657.1123 757.82926 1668.4514 770.36299 1674.3613 789.59961 A 3.7799055 3.7799055 0 0 0 1681.3965 790.08789 C 1685.4984 781.28624 1686.3387 768.51116 1684.2539 755.36328 C 1682.1691 742.21536 1677.0437 728.7113 1667.9023 719.23633 C 1661.0463 712.1301 1651.709 707.52874 1640.4355 707.52148 C 1636.6777 707.51907 1632.7031 708.02668 1628.5352 709.12305 C 1615.8364 712.46341 1601.3185 720.93581 1584.584 736.27148 C 1620.7858 657.77953 1634.1062 576.07353 1618.9688 512.25586 C 1607.3359 463.21298 1602.9805 437.26035 1624.0391 394.44141 A 3.7799055 3.7799055 0 0 0 1620.7539 388.99414 A 3.7799055 3.7799055 0 0 0 1619.4414 389.19336 C 1596.7479 396.87841 1581.9303 404.88191 1571.4961 415.55273 C 1565.9015 421.27422 1561.6605 427.70095 1558.1426 435.04688 C 1557.8188 399.0105 1553.2275 363.55128 1545.1875 329.39258 C 1522.6923 233.81952 1473.4626 148.32705 1416.2031 88.085938 C 1366.1011 35.374964 1309.8021 1.7264594 1259.2793 -1.6191406 C 1252.0618 -2.0970808 1244.9585 -1.9538599 1238.0117 -1.1621094 C 1207.8704 2.273228 1189.1775 10.154404 1178.1895 20.726562 C 1167.2014 31.298718 1164.495 44.502962 1165.9492 56.601562 C 1168.8576 80.798767 1187.0625 102 1187.0625 102 A 3.7799055 3.7799055 0 0 0 1193.6016 98.576172 C 1193.6016 98.576172 1191.6661 91.43873 1190.7812 81.796875 C 1189.8964 72.155017 1190.2014 60.16892 1194.1777 51.080078 C 1198.1541 41.991233 1205.0498 35.509094 1219.875 35.158203 C 1234.7002 34.807312 1257.5938 41.40809 1291.125 60.425781 C 1396.4068 120.13777 1454.1979 277.62011 1442.5781 425.22461 C 1436.7682 499.02686 1413.6978 570.21764 1371.0996 625.39844 C 1329.0399 679.88176 1267.9586 718.76679 1185.0234 729.66797 C 1169.7132 670.97028 1133.6879 641.76377 1101.2832 627.90039 C 1075.4467 616.84701 1052.0315 615.21236 1042.9414 615.01758 C 1037.9219 583.735 1027.0297 556.79772 1017.2852 542.87695 C 1007.0277 528.22342 1005.9825 519.25323 1006.8555 514.31641 C 1007.2722 511.95973 1008.116 510.44698 1008.8457 509.4707 C 1026.4513 517.00299 1051.0098 517.05209 1082.4453 514.57617 C 1093.9916 527.46082 1115.8086 539.28757 1154.9062 539.66602 C 1160.9547 550.60026 1164.0475 563.45551 1161.5566 579.32812 A 3.7799055 3.7799055 0 0 0 1166.2227 583.58008 C 1169.3551 582.78218 1171.0769 580.72084 1173.2051 577.97656 C 1175.3333 575.23229 1177.5006 571.60641 1179.5254 567.19922 C 1183.5749 558.38479 1187.0188 546.46038 1187.5488 532.79297 C 1188.5989 505.71322 1177.6812 471.84873 1137.75 444.0332 C 1132.4849 433.25906 1131.4528 422.84082 1131.5781 414.36523 C 1131.642 410.04471 1131.9804 406.25728 1132.1543 403.09375 C 1132.3282 399.93022 1132.8946 397.545 1131.1074 394.56641 A 3.7799055 3.7799055 0 0 0 1131.0039 394.39648 C 1123.1139 382.65766 1102.9756 362.38975 1078.5254 344.70312 C 1054.0752 327.0165 1025.5731 311.96707 1000.5059 312.92383 C 990.41524 313.30898 977.57227 307.03785 965.95117 295.37695 C 954.33003 283.71606 943.96785 266.88121 938.29883 247.1582 C 926.96081 207.7122 933.89093 156.85721 986.36328 110.60742 A 3.7799055 3.7799055 0 0 0 983.92773 104 L 983.92578 104 A 3.7799055 3.7799055 0 0 0 981.83008 104.5918 C 981.65773 104.70215 981.53701 104.82694 981.36523 104.9375 C 916.17428 146.89629 903.43471 203.4261 910.16016 251.49805 C 913.53172 275.59736 921.62883 297.64222 930.13477 315.10742 C 938.23297 331.73536 946.41784 343.69585 951.85938 350.03906 C 952.55008 362.61269 951.05049 369.10416 948.46484 377.33008 C 945.79967 385.80906 942.01663 396.22554 939.06055 415.7832 C 938.01891 422.67481 938.5283 433.69402 939.44336 447.32617 C 940.35846 460.95832 941.75433 476.98533 942.77344 492.83398 C 943.79259 508.68265 944.43197 524.36045 943.86523 537.14062 C 943.29846 549.92083 941.07025 559.87417 938.38867 563.30273 C 937.27469 564.72701 932.54021 570.25815 927.01953 572.84766 C 924.25915 574.14241 921.44244 574.72945 918.56055 574.13867 C 915.67869 573.54786 912.47641 571.77621 908.95703 567.37695 C 905.88745 563.54001 903.58634 555.82009 902.51953 546.52344 C 901.45276 537.22674 901.44338 526.40067 901.92969 516.1543 C 902.90235 495.66157 905.81836 477.53906 905.81836 477.53906 L 905.72852 477.52539 C 910.78613 464.64726 914.86601 449.12563 917.13477 432.63477 C 922.52091 393.48455 917.85841 348.57298 889.48047 322.57227 C 885.22014 309.84625 878.49414 299.01678 870.79102 291.5 L 870.74805 291.45703 L 870.70312 291.41211 C 865.63576 286.77294 860.59515 274.84775 856.99609 259.81055 C 853.39704 244.77334 850.89423 226.65641 849.18555 209.23633 C 845.7681 174.39616 845.50195 142.38672 845.50195 142.38672 A 3.7799055 3.7799055 0 0 0 845.49609 142.26953 A 3.7799055 3.7799055 0 0 0 845.48438 142.0293 A 3.7799055 3.7799055 0 0 0 845.4707 141.91602 A 3.7799055 3.7799055 0 0 0 845.43555 141.65625 A 3.7799055 3.7799055 0 0 0 845.40234 141.51953 A 3.7799055 3.7799055 0 0 0 845.3457 141.28906 A 3.7799055 3.7799055 0 0 0 845.28906 141.12695 A 3.7799055 3.7799055 0 0 0 845.22461 140.94727 A 3.7799055 3.7799055 0 0 0 845.12891 140.73438 A 3.7799055 3.7799055 0 0 0 845.06641 140.60352 A 3.7799055 3.7799055 0 0 0 844.96875 140.43555 A 3.7799055 3.7799055 0 0 0 844.86523 140.26758 A 3.7799055 3.7799055 0 0 0 844.79688 140.17383 A 3.7799055 3.7799055 0 0 0 844.62695 139.94727 A 3.7799055 3.7799055 0 0 0 844.57422 139.88867 A 3.7799055 3.7799055 0 0 0 844.39258 139.68945 A 3.7799055 3.7799055 0 0 0 844.23828 139.55078 A 3.7799055 3.7799055 0 0 0 844.11523 139.43945 A 3.7799055 3.7799055 0 0 0 843.93359 139.30469 A 3.7799055 3.7799055 0 0 0 843.8125 139.2168 A 3.7799055 3.7799055 0 0 0 843.64062 139.11133 A 3.7799055 3.7799055 0 0 0 843.47852 139.01953 A 3.7799055 3.7799055 0 0 0 843.33984 138.95312 A 3.7799055 3.7799055 0 0 0 843.13477 138.85938 A 3.7799055 3.7799055 0 0 0 842.9375 138.79102 A 3.7799055 3.7799055 0 0 0 842.79492 138.74219 A 3.7799055 3.7799055 0 0 0 842.55664 138.68164 A 3.7799055 3.7799055 0 0 0 842.42383 138.65039 A 3.7799055 3.7799055 0 0 0 842.16406 138.61523 A 3.7799055 3.7799055 0 0 0 842.05273 138.60156 A 3.7799055 3.7799055 0 0 0 841.80273 138.58984 A 3.7799055 3.7799055 0 0 0 841.69922 138.58594 A 3.7799055 3.7799055 0 0 0 841.67773 138.58789 A 3.7799055 3.7799055 0 0 0 841.63281 138.58594 A 3.7799055 3.7799055 0 0 0 841.4668 138.59766 A 3.7799055 3.7799055 0 0 0 841.28711 138.61133 A 3.7799055 3.7799055 0 0 0 841.09766 138.64062 A 3.7799055 3.7799055 0 0 0 840.92188 138.67188 A 3.7799055 3.7799055 0 0 0 840.70117 138.72852 A 3.7799055 3.7799055 0 0 0 840.5625 138.76758 A 3.7799055 3.7799055 0 0 0 840.31055 138.86328 A 3.7799055 3.7799055 0 0 0 840.21484 138.90039 A 3.7799055 3.7799055 0 0 0 839.96289 139.02344 A 3.7799055 3.7799055 0 0 0 839.87695 139.06641 A 3.7799055 3.7799055 0 0 0 839.63477 139.21875 A 3.7799055 3.7799055 0 0 0 839.55664 139.26953 A 3.7799055 3.7799055 0 0 0 839.37891 139.4043 A 3.7799055 3.7799055 0 0 0 839.24414 139.51367 A 3.7799055 3.7799055 0 0 0 839.06055 139.6875 A 3.7799055 3.7799055 0 0 0 838.98828 139.75586 A 3.7799055 3.7799055 0 0 0 838.78906 139.98633 A 3.7799055 3.7799055 0 0 0 838.74023 140.04492 A 3.7799055 3.7799055 0 0 0 838.58398 140.26562 A 3.7799055 3.7799055 0 0 0 838.51953 140.35938 A 3.7799055 3.7799055 0 0 0 838.40039 140.57031 A 3.7799055 3.7799055 0 0 0 838.33398 140.69336 A 3.7799055 3.7799055 0 0 0 838.23828 140.9082 A 3.7799055 3.7799055 0 0 0 838.18359 141.03711 A 3.7799055 3.7799055 0 0 0 838.10547 141.28125 A 3.7799055 3.7799055 0 0 0 838.07031 141.39258 A 3.7799055 3.7799055 0 0 0 838.00977 141.67578 A 3.7799055 3.7799055 0 0 0 837.99219 141.75781 A 3.7799055 3.7799055 0 0 0 837.95508 142.08594 A 3.7799055 3.7799055 0 0 0 837.95117 142.12695 A 3.7799055 3.7799055 0 0 0 837.94336 142.36719 A 3.7799055 3.7799055 0 0 0 837.94336 142.38672 C 837.94336 142.38672 837.66929 174.39616 834.25195 209.23633 C 832.54323 226.65641 830.04046 244.77335 826.44141 259.81055 C 822.84231 274.84775 817.80764 286.77294 812.74023 291.41211 L 812.69727 291.45703 L 812.65234 291.5 C 805.06806 298.90078 798.42591 309.50923 794.15625 321.98047 C 766.05466 348.0331 761.32266 392.96004 766.56055 432.17773 C 768.78493 448.83252 772.83912 464.5098 777.88281 477.49805 L 777.625 477.53906 C 777.625 477.53906 780.54296 495.66157 781.51562 516.1543 C 782.00194 526.40067 781.99259 537.22674 780.92578 546.52344 C 779.85897 555.82009 777.55786 563.54001 774.48828 567.37695 C 770.96886 571.77621 767.75884 573.54786 764.87695 574.13867 C 761.9951 574.72949 759.18417 574.14241 756.42383 572.84766 C 750.90307 570.25815 746.17069 564.72705 745.05664 563.30273 C 742.37507 559.87417 740.14487 549.92083 739.57812 537.14062 C 739.01135 524.36045 739.64506 508.68264 740.66406 492.83398 C 741.68317 476.98533 743.07908 460.95832 743.99414 447.32617 C 744.90924 433.69402 745.4264 422.67482 744.38477 415.7832 C 741.42868 396.22555 737.64564 385.80907 734.98047 377.33008 C 732.39482 369.10416 730.89328 362.6127 731.58398 350.03906 C 737.0256 343.69578 745.21043 331.73514 753.30859 315.10742 C 761.81461 297.64223 769.90574 275.59736 773.27734 251.49805 C 780.00282 203.4261 767.2695 146.89629 702.07812 104.9375 C 701.90616 104.82694 701.78582 104.70215 701.61328 104.5918 A 3.7799055 3.7799055 0 0 0 699.45898 104 A 3.7799055 3.7799055 0 0 0 697.08203 110.60742 C 749.55469 156.8572 756.47481 207.7122 745.13672 247.1582 C 739.46769 266.88121 729.11337 283.71605 717.49219 295.37695 C 705.87097 307.03785 693.0282 313.30898 682.9375 312.92383 C 657.8702 311.96706 629.36822 327.0165 604.91797 344.70312 C 580.46771 362.38974 560.33141 382.65765 552.44141 394.39648 A 3.7799055 3.7799055 0 0 0 552.33789 394.56641 C 550.55074 397.545 551.11516 399.93022 551.28906 403.09375 C 551.46296 406.25728 551.80137 410.04471 551.86523 414.36523 C 551.99049 422.83903 550.95551 433.25368 545.69336 444.02539 C 505.75519 471.84203 494.83849 505.7113 495.88867 532.79297 C 496.41867 546.46035 499.87042 558.38479 503.91992 567.19922 C 505.94468 571.60641 508.11006 575.23229 510.23828 577.97656 C 512.3665 580.72084 514.08245 582.78218 517.21484 583.58008 A 3.7799055 3.7799055 0 0 0 521.87891 579.32812 C 519.38803 563.45551 522.48274 550.60026 528.53125 539.66602 C 567.63468 539.28916 589.45316 527.46197 601 514.57617 C 632.43467 517.05198 656.98778 517.00288 674.5918 509.4707 C 675.32212 510.44698 676.17312 511.95962 676.58984 514.31641 C 677.4628 519.25323 676.41573 528.22342 666.1582 542.87695 C 656.41365 556.79769 645.52342 583.73508 640.50391 615.01758 C 631.41547 615.21214 607.99877 616.8461 582.16016 627.90039 C 549.75576 641.76362 513.73044 670.97149 498.41992 729.66797 C 415.48518 718.76679 354.40332 679.88176 312.34375 625.39844 C 269.74575 570.21764 246.66927 499.02686 240.85938 425.22461 C 229.23958 277.62011 287.0392 120.13776 392.32031 60.425781 C 425.85144 41.408087 448.74516 34.807312 463.57031 35.158203 C 478.39546 35.509094 485.28928 41.991229 489.26562 51.080078 C 493.24197 60.168924 493.54697 72.155013 492.66211 81.796875 C 491.77724 91.438733 489.8418 98.576172 489.8418 98.576172 A 3.7799055 3.7799055 0 0 0 496.38281 102 C 496.38281 102 514.58577 80.798767 517.49414 56.601562 C 518.94833 44.502962 516.2439 31.298721 505.25586 20.726562 C 494.26782 10.1544 475.56708 2.2732318 445.42578 -1.1621094 C 441.08408 -1.6569558 436.68385 -1.8975273 432.23242 -1.8925781 z M 432.23438 5.6816406 C 436.41349 5.6663529 440.52789 5.8851904 444.56836 6.3457031 C 473.75736 9.6725038 490.78593 17.295336 500.01367 26.173828 C 509.24142 35.05232 511.24486 45.246643 509.98828 55.701172 C 508.8097 65.506812 504.43756 75.047985 500.16211 82.607422 C 500.16891 82.535989 500.17679 82.554082 500.18359 82.482422 C 501.12965 72.173768 501.05385 59.161086 496.19141 48.046875 C 491.32897 36.932668 480.93202 28.004379 463.74805 27.597656 C 446.56407 27.190934 422.7349 34.479543 388.58594 53.847656 C 279.40858 115.76945 221.52251 275.84945 233.32812 425.81445 C 239.23093 500.79695 262.64608 573.39654 306.35742 630.01953 C 350.06861 686.64255 414.18177 727.15503 500.60547 737.69141 A 3.7799055 3.7799055 0 0 0 504.73828 734.82812 C 518.95234 675.95715 553.71195 648.29098 585.13477 634.84766 C 608.62727 624.79708 630.07823 622.90486 639.41406 622.58984 C 639.1022 625.05645 638.82549 627.54257 638.59375 630.04883 C 635.12338 667.58041 641.25263 709.18628 669.51758 739.54492 L 675.05469 734.40039 C 648.77136 706.17015 642.77688 666.95958 646.125 630.75 C 646.41235 627.64237 646.77459 624.56012 647.19531 621.50781 A 3.7799055 3.7799055 0 0 0 647.87305 616.9375 C 652.76182 586.31554 663.69505 559.57536 672.35156 547.20898 C 683.30735 531.55792 685.36433 520.50779 684.03711 513.00195 C 683.51565 510.05295 682.46757 507.72373 681.36328 505.98242 C 681.46629 505.91922 681.57337 505.86078 681.67578 505.79688 C 690.7581 500.12945 697.2099 491.53434 700.58789 479.95312 C 703.96588 468.37191 704.46396 453.84403 702.30078 435.50586 A 3.7799055 3.7799055 0 0 0 698.41797 432.11914 A 3.7799055 3.7799055 0 0 0 694.79297 436.39258 C 696.88486 454.12665 696.28433 467.71219 693.33203 477.83398 C 690.37969 487.95577 685.26679 494.64476 677.67383 499.38281 C 663.42627 508.27339 639.4197 509.69951 606.4043 507.39844 C 613.81393 495.63134 614.07227 484.98828 614.07227 484.98828 A 3.7799055 3.7799055 0 0 0 609.57617 481.20898 C 609.57617 481.20898 583.0812 486.28759 557.90234 501.07227 C 545.31292 508.46461 532.94871 518.32575 524.41992 531.41992 C 517.63799 541.83218 513.56615 554.42172 513.64844 568.95703 C 512.67923 567.33558 511.74711 566.1407 510.78516 564.04688 C 507.14006 556.11266 503.9344 545.06014 503.44727 532.49805 C 502.47299 507.37387 511.96286 476.18019 551.00195 449.4668 A 3.7799055 3.7799055 0 0 0 552.24219 448.04883 C 558.51042 435.60851 559.56132 423.5556 559.42383 414.25391 C 559.35508 409.60306 558.99545 405.60898 558.83398 402.67188 C 558.67422 399.76564 559.24002 397.8209 558.81836 398.50195 C 565.62582 388.42521 585.61341 367.99876 609.34766 350.83008 C 633.14762 333.61387 660.93186 319.65347 682.65039 320.48242 C 695.95266 320.99016 710.24689 313.35279 722.84375 300.71289 C 735.44061 288.07299 746.38141 270.21374 752.4082 249.24609 C 761.39751 217.97163 759.12721 179.70565 734.89844 142.41602 C 765.29646 176.78508 770.683 215.49851 765.79297 250.45117 C 762.56419 273.52982 754.75234 294.88475 746.51758 311.79297 C 738.28282 328.70118 729.5076 341.27568 724.97852 346.32617 A 3.7799055 3.7799055 0 0 0 724.01758 348.60742 C 723.70399 353.49469 723.73208 357.64569 724.00781 361.35938 C 705.27249 362.99518 683.21595 370.87828 663.0293 380.4082 C 641.4054 390.61662 622.12947 402.65688 611.78125 411.67383 C 599.62201 415.81262 588.6414 426.84931 589.00977 442.50391 A 3.7805654 3.7805654 0 1 0 596.57031 442.32812 C 596.25975 429.12933 606.42845 420.41841 616.97266 418.02734 C 622.24476 416.83181 627.40114 417.35686 631.05078 419.43555 C 634.70041 421.51424 637.20619 424.92684 637.58984 431.21875 A 3.7799055 3.7799055 0 1 0 645.13477 430.75977 C 644.62556 422.40878 640.52949 416.13449 634.79297 412.86719 C 632.17107 411.37386 629.28231 410.46712 626.27539 410.06445 C 636.51951 402.90547 650.8433 394.52302 666.26172 387.24414 C 686.07806 377.88905 707.84072 370.32424 724.98047 368.85938 C 725.68705 372.62594 726.65576 376.05859 727.76758 379.5957 C 730.51522 388.33709 734.03992 397.89659 736.91406 416.91211 C 737.69907 422.10593 737.36423 433.30172 736.45703 446.81641 C 735.54983 460.33109 734.15347 476.38445 733.12695 492.34766 C 732.10047 508.31086 731.43751 524.17235 732.02734 537.47266 C 732.61718 550.773 733.99679 561.43672 739.09961 567.96094 C 740.52956 569.78913 745.61952 576.12778 753.21289 579.68945 C 757.00958 581.47029 761.57313 582.53181 766.39648 581.54297 C 771.21984 580.55413 776.04895 577.52379 780.38672 572.10156 C 785.17432 566.11713 787.29045 557.33153 788.43164 547.38672 C 789.57279 537.44191 789.55884 526.29121 789.06055 515.79297 C 788.7465 509.17633 788.2297 502.89964 787.67773 497.28516 C 788.87125 499.12329 790.09036 500.83025 791.33984 502.37109 C 794.48884 506.25437 797.81784 509.23549 801.56836 510.79883 C 809.26372 538.50014 826.48904 565.21041 839.01953 578.57617 A 3.7810373 3.7810373 0 0 0 839.16602 578.7168 A 3.7810373 3.7810373 0 0 0 839.28906 578.83398 A 3.7810373 3.7810373 0 0 0 839.38867 578.91406 A 3.7810373 3.7810373 0 0 0 839.57227 579.05859 A 3.7810373 3.7810373 0 0 0 840.14844 579.39648 A 3.7810373 3.7810373 0 0 0 840.23047 579.4375 A 3.7810373 3.7810373 0 0 0 840.39844 579.50391 A 3.7810373 3.7810373 0 0 0 840.58984 579.57812 A 3.7810373 3.7810373 0 0 0 840.70117 579.60938 A 3.7810373 3.7810373 0 0 0 840.95312 579.67773 A 3.7810373 3.7810373 0 0 0 841.05859 579.69531 A 3.7810373 3.7810373 0 0 0 841.70508 579.76758 A 3.7810373 3.7810373 0 0 0 841.71289 579.76758 A 3.7810373 3.7810373 0 0 0 842.07422 579.75586 A 3.7810373 3.7810373 0 0 0 842.23047 579.73633 A 3.7810373 3.7810373 0 0 0 842.46484 579.70508 A 3.7810373 3.7810373 0 0 0 842.51953 579.69141 A 3.7810373 3.7810373 0 0 0 842.83203 579.61914 A 3.7810373 3.7810373 0 0 0 843.16406 579.50586 A 3.7810373 3.7810373 0 0 0 843.17383 579.50195 A 3.7810373 3.7810373 0 0 0 843.3457 579.42383 A 3.7810373 3.7810373 0 0 0 843.5332 579.33594 A 3.7810373 3.7810373 0 0 0 843.63867 579.27539 A 3.7810373 3.7810373 0 0 0 843.85938 579.14453 A 3.7810373 3.7810373 0 0 0 844.42383 578.6875 A 3.7810373 3.7810373 0 0 0 844.53516 578.57617 C 857.06755 565.20825 874.2258 538.50357 881.89062 510.81055 C 887.08735 508.71913 891.60163 504.09079 895.71875 497.71289 C 895.18198 503.2217 894.68303 509.34424 894.37695 515.79297 C 893.87866 526.29121 893.87053 537.44191 895.01172 547.38672 C 896.15287 557.33153 898.27103 566.11713 903.05859 572.10156 C 907.39636 577.52379 912.22356 580.55413 917.04688 581.54297 C 921.87023 582.53181 926.43382 581.4701 930.23047 579.68945 C 937.82384 576.12778 942.91576 569.78917 944.3457 567.96094 C 949.44852 561.43672 950.82814 550.773 951.41797 537.47266 C 952.0078 524.17235 951.34296 508.31086 950.31641 492.34766 C 949.28989 476.38445 947.89548 460.33109 946.98828 446.81641 C 946.08108 433.30172 945.74429 422.10594 946.5293 416.91211 C 949.40344 397.89658 952.9281 388.33709 955.67578 379.5957 C 956.7876 376.05854 957.75775 372.62601 958.46289 368.85938 C 975.60247 370.32548 997.36766 377.89013 1017.1816 387.24414 C 1032.6 394.52302 1046.9258 402.90547 1057.1699 410.06445 C 1054.163 410.46711 1051.2723 411.37386 1048.6504 412.86719 C 1042.9139 416.13449 1038.8178 422.40878 1038.3086 430.75977 A 3.7799055 3.7799055 0 1 0 1045.8535 431.21875 C 1046.2372 424.92683 1048.7449 421.51424 1052.3945 419.43555 C 1056.0442 417.35686 1061.1908 416.83181 1066.4629 418.02734 C 1077.0071 420.41841 1087.1856 429.12933 1086.875 442.32812 A 3.7799055 3.7799055 0 1 0 1094.4258 442.50391 C 1094.7943 426.84459 1083.8149 415.80579 1071.6523 411.66992 C 1061.3031 402.65337 1042.0292 390.61531 1020.4082 380.4082 C 1000.2202 370.87764 978.16687 362.99445 959.43164 361.35938 C 959.70622 357.64569 959.73351 353.49469 959.41992 348.60742 A 3.7799055 3.7799055 0 0 0 958.4668 346.32617 C 953.93771 341.27568 945.16046 328.70119 936.92578 311.79297 C 928.69106 294.88475 920.87331 273.52982 917.64453 250.45117 C 912.75526 215.50357 918.14513 176.79699 948.53125 142.43164 C 924.31147 179.7167 922.04702 217.97568 931.03516 249.24609 C 937.06192 270.21374 948.00282 288.07299 960.59961 300.71289 C 973.1964 313.35279 987.49269 320.99016 1000.7949 320.48242 C 1022.5134 319.65348 1050.2958 333.61387 1074.0957 350.83008 C 1097.8299 367.99877 1117.8175 388.42523 1124.625 398.50195 C 1124.2033 397.8209 1124.7716 399.76564 1124.6113 402.67188 C 1124.4499 405.60898 1124.0883 409.60306 1124.0195 414.25391 C 1123.882 423.5556 1124.9349 435.60851 1131.2031 448.04883 A 3.7799055 3.7799055 0 0 0 1132.4434 449.4668 C 1171.4824 476.1802 1180.9704 507.37386 1179.9961 532.49805 C 1179.509 545.06014 1176.3053 556.11266 1172.6602 564.04688 C 1171.6954 566.14678 1170.759 567.346 1169.7871 568.9707 C 1169.8721 554.42927 1165.8018 541.83562 1159.0176 531.41992 C 1150.4888 518.32575 1138.1304 508.46461 1125.541 501.07227 C 1100.3621 486.28758 1073.8672 481.20898 1073.8672 481.20898 A 3.7799055 3.7799055 0 0 0 1069.3711 484.98828 C 1069.3711 484.98828 1069.6295 495.63134 1077.0391 507.39844 C 1044.0229 509.69951 1020.0092 508.27339 1005.7617 499.38281 C 998.1688 494.64476 993.05777 487.95578 990.10547 477.83398 C 987.15317 467.71219 986.55264 454.12665 988.64453 436.39258 A 3.7799055 3.7799055 0 0 0 984.9082 432.11133 A 3.7799055 3.7799055 0 0 0 981.14453 435.50586 C 978.98136 453.84403 979.47162 468.37191 982.84961 479.95312 C 986.2276 491.53434 992.67944 500.12945 1001.7617 505.79688 C 1001.8641 505.86078 1001.9712 505.91922 1002.0742 505.98242 C 1000.9719 507.72374 999.9277 510.05296 999.40625 513.00195 C 998.07903 520.50775 1000.136 531.55792 1011.0918 547.20898 C 1019.7485 559.57562 1030.6817 586.3167 1035.5703 616.93945 A 3.7799055 3.7799055 0 0 0 1036.25 621.50391 C 1036.6709 624.55744 1037.0328 627.64109 1037.3203 630.75 C 1040.6684 666.95958 1034.6739 706.17015 1008.3906 734.40039 L 1013.9277 739.54492 C 1042.1926 709.18628 1048.32 667.58041 1044.8496 630.04883 C 1044.6179 627.54255 1044.3412 625.05646 1044.0293 622.58984 C 1053.3651 622.90485 1074.816 624.79705 1098.3086 634.84766 C 1129.7314 648.29098 1164.491 675.95715 1178.7051 734.82812 A 3.7799055 3.7799055 0 0 0 1182.8398 737.69141 C 1269.264 727.15503 1333.3744 686.64256 1377.0859 630.01953 C 1420.7975 573.39654 1444.2124 500.79696 1450.1152 425.81445 C 1461.9209 275.84944 1404.0296 115.76945 1294.8516 53.847656 C 1260.7025 34.47955 1236.8813 27.190934 1219.6973 27.597656 C 1202.5132 28.004379 1192.1085 36.932668 1187.2461 48.046875 C 1182.3836 59.161082 1182.3059 72.173768 1183.252 82.482422 C 1183.2557 82.541118 1183.26 82.52743 1183.2676 82.585938 C 1178.9961 75.029588 1174.6345 65.497481 1173.457 55.701172 C 1172.2005 45.246643 1174.2019 35.05232 1183.4297 26.173828 C 1192.6574 17.295336 1209.6802 9.6725038 1238.8691 6.3457031 C 1290.5874 0.45114056 1354.439 34.078186 1410.7266 93.296875 C 1467.0142 152.51556 1515.6726 236.97197 1537.834 331.12695 C 1547.3189 371.4245 1551.9592 413.48506 1550.3086 456.13281 C 1550.2876 456.20309 1550.2651 456.26748 1550.2441 456.33789 A 3.7799055 3.7799055 0 0 0 1550.209 458.61914 C 1547.712 514.81816 1534.2474 571.99751 1506.4844 627.47266 C 1467.3664 705.63689 1399.8103 780.52659 1294.166 844.47461 L 1294.166 842.77148 L 1252.5605 842.77148 L 1252.5605 868.02344 C 1237.1548 876.18033 1221.0554 884.12585 1204.2246 891.83984 A 3.7804514 3.7804514 0 1 0 1207.377 898.71289 C 1223.0505 891.52929 1238.1002 884.13988 1252.5605 876.56445 L 1252.5605 927.2793 L 1191.1816 927.2793 L 1191.1816 842.77148 L 1149.5781 842.77148 L 1149.5781 1064.5098 L 1191.1816 1064.5098 L 1191.1816 970.49805 L 1252.5605 970.49805 L 1252.5605 993.58008 C 1237.1747 995.56607 1221.421 996.57718 1205.3105 996.49414 A 3.7799055 3.7799055 0 1 0 1205.2715 1004.0527 C 1221.3892 1004.1358 1237.1567 1003.1459 1252.5605 1001.1992 L 1252.5605 1064.5098 L 1294.166 1064.5098 L 1294.166 993.42969 C 1393.6756 968.67431 1475.4385 903.23608 1532.7188 824.56836 C 1548.4539 802.95793 1562.3576 780.34846 1574.2988 757.28906 C 1597.3576 732.25717 1616.1226 720.20379 1630.4629 716.43164 C 1644.9092 712.63163 1654.8704 716.61675 1662.4629 724.48633 C 1670.0554 732.35583 1674.8782 744.5315 1676.7832 756.54492 C 1677.8942 763.55122 1677.7379 770.11811 1677.0117 775.98242 C 1670.2746 761.41295 1660.8157 751.19767 1651.1543 746.98633 C 1645.1304 744.36058 1638.6991 744.0706 1633.5703 747.23633 C 1628.4415 750.4021 1625.2752 756.56107 1624.3945 764.87891 L 1624.3945 764.84961 C 1603.6051 948.4312 1402.9767 1080.694 1204.0547 1070.7832 A 3.7805318 3.7805318 0 1 0 1203.6777 1078.3359 C 1342.6602 1085.2604 1482.5179 1024.2342 1563.4902 924.3125 C 1582.9393 904.97642 1598.0419 897.50875 1608.7734 896.91992 C 1619.5852 896.32669 1626.7867 902.00658 1632.1152 911.47656 C 1637.4437 920.94658 1640.2118 934.10308 1640.582 946.45117 C 1640.7113 950.75534 1640.2011 954.63357 1639.7773 958.55078 C 1636.7488 949.29634 1631.6892 940.64723 1625.0586 935.24609 C 1619.3683 930.61092 1611.7956 928.49342 1604.9355 932.08008 C 1598.0755 935.6667 1592.5668 943.82514 1588.1191 957.69336 C 1567.4499 1022.1423 1531.8461 1066.104 1488.2109 1095.6562 A 3.7799055 3.7799055 0 0 0 1486.7988 1096.6074 C 1454.0227 1118.4862 1416.7931 1132.338 1377.9941 1140.6914 C 1286.7792 1160.3299 1187.1538 1149.0211 1118.7129 1138.6836 A 3.7799055 3.7799055 0 1 0 1117.584 1146.1543 C 1186.2859 1156.5312 1286.6812 1168.0816 1379.582 1148.0801 C 1419.0315 1139.5866 1457.1704 1125.2926 1490.8496 1102.7832 C 1521.3283 1096.6533 1554.6963 1100.894 1572.6777 1116.7598 C 1581.7113 1124.7304 1587.1375 1135.4136 1587.0859 1150.0215 C 1587.0459 1161.384 1583.3998 1175.2603 1575.1719 1191.5977 C 1574.6968 1185.1333 1573.5044 1178.0837 1570.957 1171.8496 C 1568.2069 1165.1193 1563.7937 1159.0333 1556.7988 1157.1309 C 1549.804 1155.2284 1541.5333 1157.9867 1532.1348 1165.9668 C 1493.4661 1198.7995 1452.2251 1219.3746 1410.0703 1231.2539 A 3.7799055 3.7799055 0 0 0 1408.9297 1231.5781 C 1374.6852 1241.0971 1339.8482 1244.9056 1305.3047 1244.8574 C 1227.8378 1244.7493 1151.9657 1225.1896 1088.4551 1207.3496 A 3.7799055 3.7799055 0 1 0 1086.418 1214.6289 C 1150.0503 1232.5031 1226.5669 1252.3063 1305.2969 1252.416 C 1340.4137 1252.4649 1375.9925 1248.553 1411.0195 1238.8008 C 1450.45 1239.8705 1475.6785 1252.719 1490.4434 1270.7227 C 1505.2777 1288.8111 1509.7326 1312.4823 1506.3066 1335.6836 C 1502.8807 1358.8849 1491.5011 1381.4463 1475.2207 1396.7324 C 1462.1328 1409.0209 1445.9789 1416.265 1428.0215 1416.2129 C 1434.0594 1411.885 1439.429 1405.991 1443.5977 1398.9551 C 1450.6451 1387.0602 1454.5912 1372.3469 1452.8906 1358.1836 C 1451.1901 1344.0203 1443.5034 1330.4043 1427.9844 1322.0195 C 1412.4653 1313.6347 1389.5029 1310.321 1356.8887 1315.1035 C 1323.2462 1320.0368 1290.9389 1323.446 1256.6797 1322.6309 A 3.7799055 3.7799055 0 0 0 1255.8477 1322.6074 C 1190.5082 1320.9237 1117.9896 1303.8229 1015.5586 1252.6074 A 3.779962 3.779962 0 1 0 1012.1777 1259.3691 C 1114.9169 1310.7387 1188.7285 1328.1395 1254.9707 1330.0312 C 1315.828 1362.9709 1345.0327 1406.3459 1354.748 1450.0879 C 1364.4887 1493.9437 1354.4564 1538.4063 1335.873 1572.7246 C 1317.2897 1607.0429 1289.9909 1630.8118 1267.1621 1634.207 C 1255.7477 1635.9046 1245.5326 1632.9735 1236.7266 1623.7773 C 1229.7768 1616.5197 1223.8711 1604.9199 1219.8008 1588.6172 C 1234.0384 1603.3503 1248.6035 1608.8369 1261.6992 1605.8984 C 1277.7886 1602.2882 1290.3305 1587.5867 1297.7168 1568.627 C 1312.4895 1530.7074 1307.123 1473.6274 1261.6641 1443.5488 C 1191.9548 1397.4246 1122.0828 1374.814 1064.625 1354.8555 C 1007.1672 1334.8969 962.60126 1317.4851 942.10938 1283.332 A 3.7799055 3.7799055 0 0 0 939.00781 1281.4492 A 3.7799055 3.7799055 0 0 0 935.62695 1287.2227 C 941.18858 1296.492 948.25085 1304.5348 956.60352 1311.7012 C 957.67414 1342.354 968.31517 1356.2071 982.73047 1369.6484 C 997.40902 1383.3352 1015.8399 1397.265 1034.832 1432.084 C 1053.7752 1466.8131 1062.9156 1507.2263 1076.1348 1547.2422 C 1088.6661 1585.176 1105.5107 1622.6215 1137.8164 1654.168 C 1090.6979 1663.4154 1049.2693 1642.329 1015.8691 1603.6016 C 980.91626 1563.0738 955.32622 1503.6522 943.28906 1442.4043 C 931.12945 1380.5333 923.48432 1352.6519 916.71484 1337.2422 C 913.33013 1329.5374 910.06745 1324.9021 906.80859 1321.1348 C 903.54973 1317.3674 900.4752 1314.5483 896.91602 1309.8027 A 3.7799055 3.7799055 0 1 0 890.87109 1314.3359 C 894.81193 1319.5904 898.1696 1322.7064 901.08789 1326.0801 C 904.00618 1329.4537 906.67357 1333.1691 909.79883 1340.2832 C 916.0493 1354.5115 923.74501 1382.157 935.87109 1443.8574 C 948.11964 1506.1809 973.99938 1566.6275 1010.1406 1608.5332 C 1019.4974 1619.3824 1029.5897 1628.9777 1040.3203 1637.0273 C 1033.8833 1657.5723 1031.7384 1684.8781 1031.1113 1707.584 C 1030.5754 1726.989 1031.2056 1737.1868 1031.4434 1742.2715 C 1028.1365 1739.7736 1023.6173 1736.1001 1017.8105 1730.4824 C 1005.7014 1718.7674 988.98793 1699.5604 970.8457 1669.7363 C 934.56126 1610.0882 892.55549 1507.9397 870.4668 1338.3555 A 3.7799055 3.7799055 0 0 0 866.54688 1335.0195 A 3.7799055 3.7799055 0 0 0 862.97461 1339.3301 C 867.70928 1375.6802 873.36397 1408.9471 879.67969 1439.4219 A 3.7799055 3.7799055 0 0 0 879.43555 1440.293 C 871.59163 1482.365 865.19498 1510.6178 878.69727 1602.9668 C 884.09262 1639.8683 886.29087 1673.9362 886.50977 1704.5293 A 3.7799055 3.7799055 0 0 0 886.50781 1707.3555 C 886.51088 1707.3641 886.51451 1707.3722 886.51758 1707.3809 C 886.79108 1794.7207 870.91256 1852.9903 867.13086 1865.7324 C 865.74547 1863.8065 864.38939 1862.098 862.45117 1858.1445 C 857.06591 1847.1599 850.097 1827.1836 844.46875 1791.9961 C 833.2123 1721.6209 827.29122 1590.4295 849.06055 1348.4688 A 3.7799055 3.7799055 0 0 0 845.19922 1344.2988 A 3.7799055 3.7799055 0 0 0 841.5293 1347.791 C 819.97731 1587.3359 825.45727 1718.7034 836.61914 1790.668 C 832.15572 1834.0131 820.90616 1854.9382 815.72266 1863.5332 C 811.13888 1847.5619 796.58351 1790.7663 796.90234 1707.082 A 3.7799055 3.7799055 0 0 0 796.9082 1706.0781 C 797.06971 1675.1214 799.25231 1640.5414 804.74609 1602.9668 C 818.24849 1510.6178 811.85181 1482.365 804.00781 1440.293 A 3.7799055 3.7799055 0 0 0 803.75781 1439.4551 C 810.07629 1408.9718 815.73234 1375.6933 820.46875 1339.3301 A 3.7799055 3.7799055 0 0 0 816.78516 1335.0117 A 3.7799055 3.7799055 0 0 0 812.97656 1338.3555 C 790.88776 1507.9397 748.88229 1610.0882 712.59766 1669.7363 C 694.45536 1699.5604 677.74403 1718.7674 665.63477 1730.4824 C 659.82805 1736.1001 655.30683 1739.7736 652 1742.2715 C 652.23754 1737.1868 652.86798 1726.989 652.33203 1707.584 C 651.70488 1684.8767 649.56101 1657.5688 643.12305 1637.0234 C 653.85092 1628.9746 663.94156 1619.3806 673.29688 1608.5332 C 709.43823 1566.6275 735.3256 1506.1809 747.57422 1443.8574 C 759.70034 1382.157 767.39594 1354.5115 773.64648 1340.2832 C 776.77174 1333.1691 779.43914 1329.4537 782.35742 1326.0801 C 785.27575 1322.7064 788.63334 1319.5904 792.57422 1314.3359 A 3.7810027 3.7810028 0 1 0 786.51953 1309.8027 C 782.96035 1314.5483 779.89558 1317.3674 776.63672 1321.1348 C 773.37786 1324.9021 770.11522 1329.5374 766.73047 1337.2422 C 759.96096 1352.6519 752.31394 1380.5333 740.1543 1442.4043 C 728.11707 1503.6522 702.52917 1563.0738 667.57617 1603.6016 C 634.17764 1642.3271 592.74252 1663.4118 545.62695 1654.168 C 577.93271 1622.6215 594.77922 1585.176 607.31055 1547.2422 C 620.52971 1507.2263 629.66814 1466.8131 648.61133 1432.084 C 667.60354 1397.265 686.0343 1383.3352 700.71289 1369.6484 C 715.12796 1356.2074 725.76881 1342.3546 726.83984 1311.7031 C 735.1934 1304.5363 742.2543 1296.4928 747.81641 1287.2227 A 3.7799055 3.7799055 0 0 0 744.70117 1281.4492 A 3.7799055 3.7799055 0 0 0 741.33594 1283.332 C 720.84391 1317.4851 676.27623 1334.8969 618.81836 1354.8555 C 561.36049 1374.814 491.49049 1397.4246 421.78125 1443.5488 C 376.32255 1473.6274 370.95591 1530.7074 385.72852 1568.627 C 393.11482 1587.5867 405.65484 1602.2882 421.74414 1605.8984 C 434.84214 1608.8375 449.41037 1603.3487 463.65039 1588.6094 C 459.58003 1604.9164 453.66763 1616.5185 446.7168 1623.7773 C 437.9108 1632.9735 427.69558 1635.9046 416.28125 1634.207 C 393.45259 1630.8118 366.14769 1607.0429 347.56445 1572.7246 C 328.98122 1538.4063 318.95473 1493.9437 328.69531 1450.0879 C 338.41059 1406.3459 367.61574 1362.9709 428.47266 1330.0312 C 494.71502 1328.1396 568.528 1310.7389 671.26758 1259.3691 A 3.779962 3.779962 0 1 0 667.88672 1252.6074 C 565.24884 1303.9263 492.6436 1320.9943 427.20117 1322.6191 A 3.7799055 3.7799055 0 0 0 427.07617 1322.623 C 392.70161 1323.4663 360.2986 1320.0517 326.55469 1315.1035 C 293.94064 1310.321 270.97794 1313.6347 255.45898 1322.0195 C 239.94003 1330.4043 232.25325 1344.0203 230.55273 1358.1836 C 228.85222 1372.3469 232.80025 1387.0602 239.84766 1398.9551 C 244.01628 1405.991 249.38598 1411.885 255.42383 1416.2129 C 237.46657 1416.265 221.31041 1409.0209 208.22266 1396.7324 C 191.94231 1381.4463 180.56465 1358.8849 177.13867 1335.6836 C 173.71269 1312.4823 178.16769 1288.8111 193.00195 1270.7227 C 207.7669 1252.7187 232.99463 1239.8702 272.42578 1238.8008 C 307.4525 1248.5527 343.03024 1252.465 378.14648 1252.416 C 456.87616 1252.3064 533.39499 1232.5031 597.02734 1214.6289 A 3.7801546 3.7801546 0 1 0 594.98242 1207.3496 C 531.47184 1225.1896 455.59934 1244.7494 378.13281 1244.8574 C 343.68007 1244.9055 308.93742 1241.1183 274.78125 1231.6543 A 3.7799055 3.7799055 0 0 0 273.30273 1231.2344 C 231.1736 1219.352 189.95607 1198.7818 151.30859 1165.9668 C 141.91013 1157.9867 133.64132 1155.2284 126.64648 1157.1309 C 119.65164 1159.0333 115.23841 1165.1193 112.48828 1171.8496 C 109.94092 1178.0837 108.74658 1185.1333 108.27148 1191.5977 C 100.04362 1175.2603 96.397496 1161.384 96.357422 1150.0215 C 96.305907 1135.4136 101.73413 1124.7304 110.76758 1116.7598 C 128.74864 1100.8942 162.11561 1096.6538 192.59375 1102.7832 C 226.27312 1125.2927 264.41392 1139.5866 303.86328 1148.0801 C 396.76365 1168.0816 497.15165 1156.5312 565.85352 1146.1543 A 3.7799055 3.7799055 0 1 0 564.72461 1138.6836 C 496.28378 1149.0211 396.6637 1160.3299 305.44922 1140.6914 C 266.64957 1132.3378 229.42129 1118.4851 196.64453 1096.6055 A 3.7799055 3.7799055 0 0 0 195.22852 1095.6523 C 151.59595 1066.1001 115.99243 1022.1395 95.324219 957.69336 C 90.876614 943.82514 85.367833 935.6667 78.507812 932.08008 C 71.647796 928.49342 64.075014 930.61092 58.384766 935.24609 C 51.754167 940.64723 46.694483 949.29634 43.666016 958.55078 C 43.24224 954.63357 42.732253 950.75534 42.861328 946.45117 C 43.231608 934.10308 45.999656 920.94658 51.328125 911.47656 C 56.656597 902.00658 63.858175 896.32669 74.669922 896.91992 C 85.405032 897.50895 100.516 904.98119 119.97461 924.33203 C 200.94715 1024.2434 340.79195 1085.2619 479.76562 1078.3379 A 3.7805318 3.7805318 0 0 0 479.39062 1070.7852 C 280.46946 1080.6952 79.840061 948.4312 59.050781 764.84961 L 59.050781 764.88086 C 58.170068 756.56303 55.003762 750.40405 49.875 747.23828 C 44.746234 744.07255 38.314812 744.36058 32.291016 746.98633 C 22.62961 751.19767 13.168713 761.41295 6.4316406 775.98242 C 5.7056198 770.11811 5.5491755 763.55317 6.6601562 756.54688 C 8.5650797 744.53346 13.390005 732.35583 20.982422 724.48633 C 28.574839 716.61686 38.536164 712.63358 52.982422 716.43359 C 67.322613 720.20574 86.085906 732.25717 109.14453 757.28906 C 121.08577 780.34846 134.99146 802.95793 150.72656 824.56836 C 207.50273 902.54417 288.33387 967.51481 386.6582 992.75977 L 386.6582 1064.5098 L 428.26367 1064.5098 L 428.26367 1000.8633 C 444.497 1003.0364 461.14012 1004.1405 478.17188 1004.0527 A 3.7799055 3.7799055 0 1 0 478.12695 996.49414 C 461.10444 996.58189 444.47568 995.46058 428.26367 993.24414 L 428.26367 970.49805 L 489.64258 970.49805 L 489.64258 1064.5098 L 531.24609 1064.5098 L 531.24609 842.77148 L 489.64258 842.77148 L 489.64258 927.2793 L 428.26367 927.2793 L 428.26367 875.18555 C 443.52327 883.24424 459.4453 891.09409 476.06836 898.71289 A 3.7804555 3.7804555 0 1 0 479.21875 891.83984 C 461.43135 883.68739 444.46091 875.27683 428.26367 866.63086 L 428.26367 842.77148 L 386.6582 842.77148 L 386.6582 842.87695 C 282.51871 779.28042 215.75376 704.98756 176.96094 627.47266 C 149.19803 571.99749 135.73335 514.81815 133.23633 458.61914 A 3.7799055 3.7799055 0 0 0 133.20117 456.33789 C 133.1802 456.26749 133.15771 456.20308 133.13672 456.13281 C 131.4861 413.48507 136.12454 371.4245 145.60938 331.12695 C 167.77064 236.97197 216.43143 152.51556 272.71875 93.296875 C 324.60862 38.704646 382.9208 5.8620358 432.23438 5.6816406 z M 841.72266 210.54297 C 843.44985 227.99443 845.95685 246.14221 849.65039 261.57422 C 853.37024 277.11602 857.95241 289.92678 865.51367 296.91211 C 875.7831 306.93311 884.86653 324.95271 886.45703 345.27734 C 888.04757 365.60198 882.40315 388.18148 863.47656 408.3125 A 3.7799055 3.7799055 0 0 0 862.61719 409.66211 C 861.71244 411.17671 861.18164 412.93467 861.18164 414.80859 C 861.18164 420.36462 865.7682 424.95117 871.32422 424.95117 C 876.88024 424.95117 881.45898 420.36462 881.45898 414.80859 C 881.45898 410.79268 879.06115 407.29332 875.63672 405.65625 C 890.73567 385.95118 895.52383 364.23463 893.99414 344.6875 C 893.81862 342.44462 893.54144 340.23799 893.21094 338.05664 C 910.93937 362.3144 914.16956 398.69633 909.64258 431.60156 C 907.02306 450.642 901.85108 468.42323 895.76562 481.6582 C 892.17988 489.45672 888.10917 495.49678 884.47656 499.38477 C 885.46971 493.63546 885.9756 487.91669 885.85938 482.33789 A 3.7799055 3.7799055 0 0 0 881.93945 478.58789 A 3.7799055 3.7799055 0 0 0 878.29883 482.5 C 878.93441 513.00695 857.09615 552.20873 841.77734 570.29297 C 826.44267 552.20361 804.50912 512.9997 805.14453 482.5 A 3.7799055 3.7799055 0 0 0 801.38672 478.58789 A 3.7799055 3.7799055 0 0 0 797.58594 482.33789 C 797.46792 488.00273 797.98943 493.81202 799.01758 499.65039 C 798.42136 499.02751 797.81805 498.36242 797.20898 497.61133 C 794.04367 493.70788 790.78002 488.19966 787.75977 481.54102 C 781.71929 468.22373 776.61079 450.32683 774.05273 431.17383 C 769.67144 398.3697 772.92278 362.14401 790.26562 337.83789 C 789.91895 340.08974 789.63255 342.36974 789.45117 344.6875 C 787.9215 364.23439 792.70807 385.95138 807.80664 405.65625 C 804.38007 407.29332 801.97852 410.79268 801.97852 414.80859 C 801.97852 420.36462 806.56507 424.95117 812.12109 424.95117 C 817.67715 424.95117 822.26367 420.36462 822.26367 414.80859 C 822.26367 412.93547 821.73215 411.17823 820.82812 409.66406 A 3.7799055 3.7799055 0 0 0 819.96875 408.3125 C 801.04205 388.18148 795.39774 365.60198 796.98828 345.27734 C 798.57882 324.95271 807.66022 306.93312 817.92969 296.91211 L 817.8418 296.99219 C 825.45293 290.02425 830.06139 277.17317 833.79492 261.57422 C 837.4885 246.1422 839.99546 227.99443 841.72266 210.54297 z M 69.421875 399.66016 C 86.345114 406.12027 98.620201 412.73539 106.54492 420.83984 C 115.60212 430.10245 120.80397 441.48623 125.64258 457.48047 C 128.01272 515.1445 141.69559 573.89825 170.19922 630.85352 C 210.17414 710.7304 279.23866 786.95633 386.6582 851.71875 L 386.6582 984.9668 C 291.11353 959.89174 212.43222 896.46988 156.83789 820.11719 C 141.33574 798.82669 127.6587 776.53176 115.92188 753.80469 A 3.7800881 3.7800881 0 0 0 115.66992 753.32227 C 72.726838 669.94924 55.983732 580.80436 71.828125 514.00586 C 82.702593 468.16018 86.423237 439.15176 69.421875 399.66016 z M 1614.0234 399.66016 C 1597.022 439.15176 1600.7427 468.16017 1611.6172 514.00586 C 1627.4596 580.79547 1610.7216 669.92556 1567.791 753.28906 A 3.7800893 3.7800893 0 0 0 1567.543 753.76367 C 1555.8014 776.50489 1542.119 798.81393 1526.6074 820.11719 C 1470.5074 897.1639 1390.8901 961.03546 1294.166 985.63281 L 1294.166 853.2832 C 1403.0786 788.18676 1472.9481 711.38339 1513.2461 630.86133 C 1541.7511 573.90311 1555.4337 515.14357 1557.8027 457.47461 C 1562.6409 441.4835 1567.8423 430.10131 1576.8984 420.83984 C 1584.8232 412.73539 1597.1001 406.12027 1614.0234 399.66016 z M 812.12109 412.22461 C 813.59193 412.22461 814.70508 413.33778 814.70508 414.80859 C 814.70508 416.2794 813.59193 417.39258 812.12109 417.39258 C 810.65029 417.39258 809.53711 416.2794 809.53711 414.80859 C 809.53711 413.33778 810.65029 412.22461 812.12109 412.22461 z M 871.32422 412.22461 C 872.79502 412.22461 873.90039 413.33778 873.90039 414.80859 C 873.90039 416.2794 872.79502 417.39258 871.32422 417.39258 C 869.85342 417.39258 868.74023 416.2794 868.74023 414.80859 C 868.74023 413.33778 869.85342 412.22461 871.32422 412.22461 z M 620.29492 431.13672 C 617.51032 431.13623 614.93707 431.76853 612.78711 433.0625 C 610.63715 434.35647 608.65625 436.64614 608.6543 439.64844 C 608.6543 442.65074 610.63759 444.9377 612.78711 446.23242 C 614.93662 447.52714 617.5025 448.15999 620.28711 448.16016 C 623.07171 448.16032 625.64518 447.52677 627.79492 446.23242 C 629.94466 444.93807 631.92871 442.65854 631.92969 439.65625 C 631.93067 436.65395 629.95203 434.36541 627.80273 433.07031 C 625.65344 431.77522 623.07952 431.13721 620.29492 431.13672 z M 1063.1484 431.13672 C 1060.3638 431.13721 1057.7918 431.77522 1055.6426 433.07031 C 1053.4933 434.36541 1051.5146 436.65395 1051.5156 439.65625 C 1051.5166 442.65854 1053.4928 444.93807 1055.6426 446.23242 C 1057.7923 447.52677 1060.3638 448.16032 1063.1484 448.16016 C 1065.933 448.15999 1068.5068 447.52714 1070.6562 446.23242 C 1072.8058 444.9377 1074.7832 442.65074 1074.7832 439.64844 C 1074.7812 436.64614 1072.8062 434.35647 1070.6562 433.0625 C 1068.5063 431.76853 1065.933 431.13623 1063.1484 431.13672 z M 620.29492 438.69531 C 621.8494 438.69559 623.20292 439.127 623.89648 439.54492 C 624.00387 439.60963 623.98304 439.60651 624.05078 439.6543 C 623.9967 439.69067 623.96951 439.7158 623.89648 439.75977 C 623.20225 440.17776 621.8494 440.5997 620.29492 440.59961 C 618.74044 440.59951 617.37945 440.17772 616.68555 439.75977 C 616.60812 439.71313 616.5777 439.68652 616.52148 439.64844 C 616.57784 439.61028 616.60785 439.58387 616.68555 439.53711 C 617.38012 439.11907 618.74045 438.69504 620.29492 438.69531 z M 1063.1484 438.69531 C 1064.7029 438.69504 1066.0574 439.11907 1066.752 439.53711 C 1066.8313 439.58489 1066.8628 439.6116 1066.9199 439.65039 C 1066.8645 439.68793 1066.8358 439.71398 1066.7598 439.75977 C 1066.0659 440.17772 1064.7029 440.59951 1063.1484 440.59961 C 1061.594 440.5997 1060.2411 440.17776 1059.5469 439.75977 C 1059.4739 439.7158 1059.4467 439.69067 1059.3926 439.6543 C 1059.4604 439.60643 1059.4392 439.6098 1059.5469 439.54492 C 1060.2404 439.127 1061.594 438.69559 1063.1484 438.69531 z M 605.56836 490.0957 C 604.69981 494.47107 602.79887 500.6332 596.52539 508.20312 C 587.40197 519.21197 569.09221 530.17423 534.14844 531.68555 C 541.62458 521.92163 551.26957 513.732 561.72656 507.5918 C 581.42843 496.02313 598.94875 491.62056 605.56836 490.0957 z M 1077.877 490.0957 C 1084.5003 491.62164 1102.0183 496.02513 1121.7168 507.5918 C 1132.1738 513.732 1141.8129 521.92159 1149.2891 531.68555 C 1114.3504 530.17287 1096.0426 519.21114 1086.9199 508.20312 C 1080.6464 500.6332 1078.7455 494.47107 1077.877 490.0957 z M 572.09375 842.77148 L 572.09375 1064.5098 L 686.74805 1064.5098 L 686.74805 1021.291 L 613.69727 1021.291 L 613.69727 970.49805 L 680.15625 970.49805 L 680.15625 927.2793 L 613.69727 927.2793 L 613.69727 885.99023 L 684.37109 885.99023 L 684.37109 842.77148 L 572.09375 842.77148 z M 763.9043 842.77148 L 704.14648 1064.5098 L 745.96484 1064.5098 L 756.23242 1024.1113 L 821.28516 1024.1113 L 831.44336 1064.5098 L 873.26367 1064.5098 L 813.50391 842.77148 L 763.9043 842.77148 z M 894.55078 842.77148 L 894.55078 1064.5098 L 1009.2051 1064.5098 L 1009.2051 1021.291 L 936.1543 1021.291 L 936.1543 842.77148 L 894.55078 842.77148 z M 979.48828 842.77148 L 979.48828 885.99023 L 1033.0879 885.99023 L 1033.0879 1064.5098 L 1074.6914 1064.5098 L 1074.6914 885.99023 L 1128.1816 885.99023 L 1128.1816 842.77148 L 979.48828 842.77148 z M 788.75781 894.75391 L 810.80273 982.97266 L 766.60547 982.97266 L 788.75781 894.75391 z M 883.77148 1458.3496 C 905.45411 1554.7883 933.78966 1621.2484 959.99023 1666.2598 C 953.16346 1685.6841 950.18618 1717.9129 948.67188 1746.0352 C 947.36839 1770.243 947.49574 1784.4837 947.49805 1790.6152 C 935.99277 1779.2282 909.90198 1750.0658 893.88281 1705.5234 C 893.7901 1674.0701 891.63838 1639.2287 886.17578 1601.8672 C 874.59444 1522.6566 877.65962 1492.3013 883.77148 1458.3496 z M 799.66992 1458.3672 C 805.78122 1492.3118 808.847 1522.6704 797.26758 1601.8672 C 791.81124 1639.1857 789.65986 1673.991 789.5625 1705.416 C 773.56635 1750.3564 747.25541 1779.7658 735.68945 1791.2129 C 735.69176 1785.0814 735.819 1770.8406 734.51562 1746.6328 C 732.99884 1718.4637 730.01312 1686.1735 723.16211 1666.7598 C 749.44235 1621.7441 777.90735 1555.1523 799.66992 1458.3672 z "
           transform="matrix(0.86757862,0,0,0.63125487,130.67637,422.07483)"
           id="path155" />
      </g>
    </g>
  </g>
</svg>
